<svg width="33" height="21" viewBox="0 0 33 21" fill="none" xmlns="http://www.w3.org/2000/svg">
<g clip-path="url(#clip0_168_109)">
<path d="M9.22152 0.474701C9.33066 5.79788 13.6199 10.0871 18.943 10.1962C13.6199 10.3054 9.33066 14.5946 9.22152 19.9177C9.11238 14.5946 4.82318 10.3054 -0.5 10.1962C4.82318 10.0871 9.11238 5.79788 9.22152 0.474701Z" fill="#A082DD"/>
<path d="M19.2975 21.1329V17.4931C19.2975 17.4898 19.2998 17.4869 19.3031 17.4861C26.8136 15.8565 26.8136 5.14353 19.3031 3.5139C19.2998 3.51319 19.2975 3.51028 19.2975 3.50692V-0.132889L20.3756 0.945188C23.9745 4.5441 27.964 7.72972 32.2699 10.4429C32.3119 10.4694 32.3119 10.5307 32.2699 10.5571C27.9896 13.2447 24.0252 16.4052 20.4515 19.979L19.2975 21.1329Z" fill="#A082DD"/>
</g>
<defs>
<clipPath id="clip0_168_109">
<rect width="21" height="33" fill="white" transform="translate(33) rotate(90)"/>
</clipPath>
</defs>
</svg>
