<svg width="14" height="14" viewBox="0 0 14 14" fill="none" xmlns="http://www.w3.org/2000/svg">
<g clip-path="url(#clip0_173_3657)">
<path d="M13.25 14.0594H3.25001C3.0511 14.0594 2.86034 13.9804 2.71968 13.8397C2.57903 13.699 2.50001 13.5083 2.50001 13.3094V3.05937C2.50001 2.92676 2.55269 2.79959 2.64646 2.70582C2.74023 2.61205 2.86741 2.55937 3.00001 2.55937H13.25C13.4489 2.55937 13.6397 2.63839 13.7803 2.77904C13.921 2.91969 14 3.11046 14 3.30937V13.3094C14 13.5083 13.921 13.699 13.7803 13.8397C13.6397 13.9804 13.4489 14.0594 13.25 14.0594Z" fill="#C0A9ED"/>
<path d="M2.50001 1.55937H11.5V0.809372C11.5 0.61046 11.421 0.419694 11.2803 0.279042C11.1397 0.13839 10.9489 0.0593719 10.75 0.0593719H0.875013C0.642949 0.0593719 0.420389 0.151559 0.256295 0.315654C0.0922006 0.479748 1.33514e-05 0.702308 1.33514e-05 0.934372V10.8094C1.33514e-05 11.0083 0.079031 11.199 0.219683 11.3397C0.360336 11.4804 0.551101 11.5594 0.750013 11.5594H1.50001V2.55937C1.50001 2.29416 1.60537 2.0398 1.79291 1.85227C1.98044 1.66473 2.2348 1.55937 2.50001 1.55937Z" fill="#C0A9ED"/>
</g>
<defs>
<clipPath id="clip0_173_3657">
<rect width="14" height="14" fill="white"/>
</clipPath>
</defs>
</svg>
