<svg width="16" height="14" viewBox="0 0 16 14" fill="none" xmlns="http://www.w3.org/2000/svg">
<path d="M13.2 11.5H2.80002C2.58002 11.5 2.40002 11.68 2.40002 11.9V12.7C2.40002 12.92 2.58002 13.1 2.80002 13.1H13.2C13.42 13.1 13.6 12.92 13.6 12.7V11.9C13.6 11.68 13.42 11.5 13.2 11.5ZM14.8 3.5C14.1375 3.5 13.6 4.0375 13.6 4.7C13.6 4.8775 13.64 5.0425 13.71 5.195L11.9 6.28C11.515 6.51 11.0175 6.38 10.795 5.99L8.75751 2.425C9.02501 2.205 9.20002 1.875 9.20002 1.5C9.20002 0.837503 8.66252 0.300003 8.00002 0.300003C7.33752 0.300003 6.80002 0.837503 6.80002 1.5C6.80002 1.875 6.97502 2.205 7.24252 2.425L5.20502 5.99C4.98252 6.38 4.48252 6.51 4.10002 6.28L2.29252 5.195C2.36002 5.045 2.40252 4.8775 2.40252 4.7C2.40252 4.0375 1.86502 3.5 1.20252 3.5C0.540015 3.5 1.52588e-05 4.0375 1.52588e-05 4.7C1.52588e-05 5.3625 0.537515 5.9 1.20002 5.9C1.26502 5.9 1.33002 5.89 1.39252 5.88L3.20002 10.7H12.8L14.6075 5.88C14.67 5.89 14.735 5.9 14.8 5.9C15.4625 5.9 16 5.3625 16 4.7C16 4.0375 15.4625 3.5 14.8 3.5Z" fill="#C0A9ED"/>
</svg>
