<svg width="35" height="35" viewBox="0 0 35 35" fill="none" xmlns="http://www.w3.org/2000/svg">
<path d="M35 17.4999C35 27.1649 27.165 34.9999 17.5 34.9999C7.83502 34.9999 0 27.1649 0 17.4999C0 7.83489 7.83502 -0.00012207 17.5 -0.00012207C27.165 -0.00012207 35 7.83489 35 17.4999Z" fill="#D9D9D9"/>
<path d="M35 17.4999C35 27.1649 27.165 34.9999 17.5 34.9999C7.83502 34.9999 0 27.1649 0 17.4999C0 7.83489 7.83502 -0.00012207 17.5 -0.00012207C27.165 -0.00012207 35 7.83489 35 17.4999Z" fill="#A082DD"/>
<path d="M29.2945 18.1697L27.607 10.1641C27.2812 8.41756 26.0261 7.375 24.25 7.375H10.75C9.86404 7.375 9.11521 7.62233 8.52986 8.11012C7.94451 8.59791 7.56113 9.28663 7.39185 10.161L5.70435 18.1697C5.69295 18.227 5.6873 18.2853 5.68748 18.3438V24.25C5.68748 25.1451 6.04306 26.0036 6.67599 26.6365C7.30893 27.2694 8.16737 27.625 9.06248 27.625H25.9375C26.8326 27.625 27.691 27.2694 28.324 26.6365C28.9569 26.0036 29.3125 25.1451 29.3125 24.25V18.3438C29.3123 18.2853 29.3063 18.227 29.2945 18.1697ZM9.04455 10.5022V10.4874C9.23175 9.51549 9.77281 9.06356 10.7473 9.06356H24.25C25.2314 9.06356 25.7724 9.51444 25.9517 10.4826C25.9517 10.4895 25.9544 10.4964 25.9554 10.5032L27.3755 17.2469C27.382 17.2776 27.3815 17.3094 27.3741 17.3399C27.3667 17.3704 27.3525 17.3989 27.3327 17.4232C27.3129 17.4476 27.2879 17.4672 27.2596 17.4807C27.2312 17.4941 27.2002 17.5011 27.1688 17.5011H20.875C20.6525 17.4999 20.4387 17.5872 20.2805 17.7436C20.1223 17.9 20.0326 18.1128 20.0312 18.3353C20.0312 19.0066 19.7645 19.6505 19.2898 20.1252C18.8151 20.5999 18.1713 20.8666 17.5 20.8666C16.8286 20.8666 16.1848 20.5999 15.7101 20.1252C15.2354 19.6505 14.9687 19.0066 14.9687 18.3353C14.9682 18.2251 14.9459 18.116 14.9032 18.0144C14.8605 17.9127 14.7982 17.8205 14.7199 17.7429C14.6415 17.6653 14.5486 17.604 14.4466 17.5623C14.3445 17.5206 14.2352 17.4995 14.125 17.5H7.83113C7.79974 17.5 7.76873 17.4931 7.74038 17.4796C7.71202 17.4661 7.68703 17.4465 7.66722 17.4222C7.64741 17.3978 7.63329 17.3693 7.62588 17.3388C7.61848 17.3083 7.61798 17.2766 7.62441 17.2458L9.04455 10.5022Z" fill="#210354"/>
<path d="M23.4062 12.4375H11.5937C11.37 12.4375 11.1553 12.3486 10.9971 12.1904C10.8389 12.0321 10.75 11.8175 10.75 11.5938C10.75 11.37 10.8389 11.1554 10.9971 10.9971C11.1553 10.8389 11.37 10.75 11.5937 10.75H23.4062C23.63 10.75 23.8446 10.8389 24.0028 10.9971C24.1611 11.1554 24.25 11.37 24.25 11.5938C24.25 11.8175 24.1611 12.0321 24.0028 12.1904C23.8446 12.3486 23.63 12.4375 23.4062 12.4375ZM24.25 15.8125H10.75C10.5262 15.8125 10.3116 15.7236 10.1534 15.5654C9.99512 15.4071 9.90623 15.1925 9.90623 14.9688C9.90623 14.745 9.99512 14.5304 10.1534 14.3721C10.3116 14.2139 10.5262 14.125 10.75 14.125H24.25C24.4738 14.125 24.6884 14.2139 24.8466 14.3721C25.0048 14.5304 25.0937 14.745 25.0937 14.9688C25.0937 15.1925 25.0048 15.4071 24.8466 15.5654C24.6884 15.7236 24.4738 15.8125 24.25 15.8125Z" fill="#210354"/>
</svg>
