<svg width="44" height="43" viewBox="0 0 44 43" fill="none" xmlns="http://www.w3.org/2000/svg">
<circle cx="22.2501" cy="14.0577" r="5.375" stroke="#A082DD" stroke-width="0.826923"/>
<circle cx="28.0385" cy="20.6731" r="5.375" stroke="#A082DD" stroke-width="0.826923"/>
<circle cx="16.4616" cy="20.6731" r="5.375" stroke="#A082DD" stroke-width="0.826923"/>
<circle cx="22.2501" cy="27.2885" r="5.375" stroke="#A082DD" stroke-width="0.826923"/>
<rect x="5.71167" y="19.0192" width="16.5385" height="3.30769" rx="1.65385" fill="#A082DD"/>
<rect x="23.9038" y="4.96155" width="16.5385" height="3.30769" rx="1.65385" transform="rotate(90 23.9038 4.96155)" fill="#A082DD"/>
<rect x="0.75" y="19.8461" width="4.13462" height="1.65385" rx="0.826923" fill="#A082DD"/>
<rect x="23.0769" width="4.13462" height="1.65385" rx="0.826923" transform="rotate(90 23.0769 0)" fill="#A082DD"/>
<rect x="23.0769" y="38.8654" width="4.13462" height="1.65385" rx="0.826923" transform="rotate(90 23.0769 38.8654)" fill="#A082DD"/>
<rect x="39.6152" y="19.8461" width="4.13462" height="1.65385" rx="0.826923" fill="#A082DD"/>
<rect x="23.9038" y="21.5" width="16.5385" height="3.30769" rx="1.65385" transform="rotate(90 23.9038 21.5)" fill="#A082DD"/>
<rect x="22.25" y="19.0192" width="16.5385" height="3.30769" rx="1.65385" fill="#A082DD"/>
</svg>
