<svg width="134" height="127" viewBox="0 0 134 127" fill="none" xmlns="http://www.w3.org/2000/svg">
<g clip-path="url(#clip0_444_18)">
<path d="M79.1314 37.8983L90.5812 42.7939C90.7358 42.86 90.9063 42.8792 91.0717 42.8491L94.8633 42.1591C95.7269 42.002 95.8845 40.8313 95.0931 40.4514L80.1959 33.3001C76.4175 31.4863 72.2469 30.6417 68.0605 30.8425C61.1637 31.1733 54.7032 34.3144 50.1835 39.5344L47.2736 42.8952L59.9292 37.7357C62.9158 36.5181 66.1104 35.892 69.3356 35.892C72.7029 35.892 76.0353 36.5745 79.1314 37.8983Z" fill="#E4CAFF"/>
<path d="M58.0598 60.1974L66.7884 61.4091C74.7706 62.5171 82.8759 62.3863 90.8182 61.0213C84.2998 63.9789 77.0642 64.9844 69.9864 63.9163L69.6557 63.8664C66.2027 63.3454 62.8376 62.3529 59.6544 60.9168L58.0598 60.1974Z" fill="#E4CAFF"/>
<path d="M94.3864 48.5657C94.3864 54.897 90.8847 62.6083 82.0909 62.6083C72.2624 62.6083 69.1587 54.897 69.1587 48.5657C69.1587 42.2345 75.5725 37.2613 82.6081 37.2613C89.6438 37.2613 94.3864 43.4687 94.3864 48.5657Z" fill="#E4CAFF"/>
<path d="M56.9079 35.6118C53.8441 36.8676 50.0191 36.2267 47.3083 33.0613" stroke="#E4CAFF" stroke-width="1.092" stroke-linecap="round"/>
<path d="M60.6533 34.5424C56.7438 34.6748 53.6401 34.1575 51.0536 31.0538" stroke="#E4CAFF" stroke-width="1.092" stroke-linecap="round"/>
<path d="M50.5364 40.8823C50.4889 40.8823 48.4672 41.3996 46.9154 41.3996C44.4669 41.3996 42.7771 41.3996 40.7079 40.3252" stroke="#E4CAFF" stroke-width="1.092" stroke-linecap="round"/>
<path d="M53.7196 38.7256C49.6031 38.7256 45.8263 38.5699 42.777 36.537" stroke="#E4CAFF" stroke-width="1.092" stroke-linecap="round"/>
<path d="M60.3648 61.0564C59.3744 61.1554 57.2823 62.5717 57.0621 63.3643" stroke="#E4CAFF" stroke-width="1.092" stroke-linecap="round"/>
<path d="M57.0621 60.1413C55.0976 60.1413 54.1588 61.0404 52.6851 62.3298" stroke="#E4CAFF" stroke-width="1.092" stroke-linecap="round"/>
<path d="M54.8736 58.9873C53.1228 58.47 51.571 58.9873 50.0191 60.5391" stroke="#E4CAFF" stroke-width="1.092" stroke-linecap="round"/>
<path fill-rule="evenodd" clip-rule="evenodd" d="M50.857 73.5378C65.1449 84.4714 85.5908 81.7522 96.5244 67.4644C107.458 53.1766 104.739 32.7306 90.4511 21.797C76.1633 10.8634 55.7173 13.5826 44.7837 27.8704C33.8501 42.1582 36.5692 62.6042 50.857 73.5378ZM54.8164 68.3637C66.2466 77.1106 82.6034 74.9353 91.3503 63.5051C100.097 52.0748 97.9219 35.718 86.4917 26.9711C75.0614 18.2243 58.7046 20.3996 49.9577 31.8298C41.2109 43.26 43.3862 59.6168 54.8164 68.3637Z" fill="#BF71F7"/>
<path d="M49.0378 71.2539L54.0994 75.1272L27.3122 114.413C26.0193 116.309 23.3992 116.731 21.5765 115.336L18.7266 113.155C16.9039 111.76 16.6262 109.121 18.1186 107.378L49.0378 71.2539Z" fill="#BF71F7"/>
</g>
<defs>
<clipPath id="clip0_444_18">
<rect width="134" height="127" fill="white"/>
</clipPath>
</defs>
</svg>
