<svg width="134" height="127" viewBox="0 0 134 127" fill="none" xmlns="http://www.w3.org/2000/svg">
<path fill-rule="evenodd" clip-rule="evenodd" d="M107.104 103.995L77.2371 64.042V41.2339H81.0288C82.6019 41.2339 84.0327 40.5906 85.0668 39.5562C86.1011 38.5222 86.7444 37.0912 86.7444 35.5184C86.7444 33.9445 86.1011 32.5142 85.0668 31.4802C84.0327 30.4461 82.6019 29.8025 81.0288 29.8025H52.8023C51.2285 29.8025 49.7982 30.4461 48.7641 31.4802C47.73 32.5142 47.0867 33.9445 47.0867 35.5184C47.0867 37.0912 47.73 38.5222 48.7641 39.5562C49.7982 40.5906 51.2285 41.2339 52.8023 41.2339H56.5931V64.1403L26.7989 103.995C25.6947 105.473 25 107.839 25 110.129C25 111.308 25.184 112.505 25.5903 113.594C26.0303 114.772 26.728 115.809 27.7272 116.556C28.7116 117.292 29.9477 117.73 31.4635 117.73H102.575C103.967 117.73 105.124 117.315 106.061 116.614C107.074 115.856 107.785 114.787 108.232 113.568C108.641 112.452 108.832 111.205 108.832 109.977C108.832 107.74 108.191 105.448 107.104 103.995ZM81.1277 104.47C80.9855 105.001 80.4406 105.315 79.9097 105.173C79.379 105.031 79.0636 104.485 79.2057 103.954C79.3478 103.424 79.8935 103.108 80.4245 103.251C80.9554 103.393 81.2705 103.939 81.1277 104.47ZM74.4628 95.1584C74.1853 96.1954 73.1203 96.8104 72.0833 96.5322C71.0466 96.2545 70.4316 95.1896 70.7097 94.1527C70.9872 93.1159 72.0525 92.5014 73.0891 92.7789C74.1253 93.0566 74.7405 94.1217 74.4628 95.1584ZM65.6058 108.806C65.3282 109.843 64.2632 110.458 63.2263 110.18C62.1896 109.902 61.5745 108.837 61.8526 107.8C62.1301 106.764 63.1954 106.149 64.2321 106.427C65.2683 106.704 65.8834 107.769 65.6058 108.806ZM56.8026 85.5214C56.6059 86.2543 55.8527 86.6888 55.1198 86.4927C54.3875 86.2967 53.9521 85.5435 54.1489 84.8105C54.345 84.0776 55.0981 83.6424 55.8311 83.8392C56.5641 84.035 56.9987 84.7885 56.8026 85.5214ZM53.7171 99.9659C53.5749 100.497 53.0299 100.812 52.499 100.669C51.9681 100.527 51.653 99.9816 51.7951 99.4507C51.9372 98.9197 52.4829 98.6044 53.0138 98.7472C53.5446 98.8895 53.8599 99.4352 53.7171 99.9659ZM50.034 93.3961C49.7564 94.4328 48.6914 95.048 47.6545 94.7706C46.6177 94.4923 46.0027 93.4271 46.2807 92.3903C46.5584 91.3542 47.6236 90.7391 48.6602 91.0167C49.6965 91.2943 50.3116 92.36 50.034 93.3961ZM43.8912 105.568C43.7491 106.099 43.2035 106.415 42.6726 106.272C42.1416 106.13 41.8269 105.584 41.9693 105.053C42.1114 104.522 42.6571 104.208 43.1878 104.35C43.7188 104.492 44.0334 105.038 43.8912 105.568ZM88.3477 97.5981C88.5438 96.8649 89.2969 96.4297 90.0299 96.6265C90.7629 96.8226 91.1975 97.5757 91.0015 98.3087C90.8047 99.0417 90.0515 99.4763 89.3186 99.2803C88.5863 99.0842 88.1512 98.3311 88.3477 97.5981ZM59.8025 65.7947C60.0418 65.4748 60.1564 65.101 60.1583 64.7297V41.2339H61.2895C62.2737 41.2339 63.072 40.4356 63.072 39.4512C63.072 38.467 62.2737 37.6687 61.2895 37.6687H52.8023C52.2133 37.6687 51.675 37.4253 51.285 37.0353C50.895 36.6453 50.6516 36.107 50.6516 35.5184C50.6516 34.9294 50.895 34.3911 51.285 34.0011C51.675 33.611 52.2133 33.3677 52.8023 33.3677H81.0288C81.6175 33.3677 82.1558 33.611 82.5459 34.0011C82.9361 34.3911 83.1792 34.9294 83.1792 35.5184C83.1792 36.107 82.9361 36.6453 82.5459 37.0353C82.1558 37.4253 81.6175 37.6687 81.0288 37.6687H72.5416C71.5572 37.6687 70.7589 38.467 70.7589 39.4512C70.7589 40.4356 71.5572 41.2339 72.5416 41.2339H73.6719V64.6313C73.6719 65.0625 73.8256 65.4586 74.0802 65.7664L86.9426 82.9724C84.1588 83.9906 81.4652 84.5889 78.7948 84.6644C75.4998 84.7573 72.1905 84.0614 68.7223 82.4089C66.0376 81.1301 63.9302 79.7861 61.9381 78.5155C59.2881 76.8263 56.8108 75.2625 53.5901 74.1048L59.8025 65.7947Z" fill="#E4CAFF"/>
<path d="M56.3478 25.9052C57.8655 25.9052 59.0958 24.6749 59.0958 23.1572C59.0958 21.6396 57.8655 20.4093 56.3478 20.4093C54.8302 20.4093 53.5999 21.6396 53.5999 23.1572C53.5999 24.6749 54.8302 25.9052 56.3478 25.9052Z" fill="#BF71F7"/>
<path d="M77.8206 26.0764C80.1996 26.0764 82.1281 24.1478 82.1281 21.7688C82.1281 19.3898 80.1996 17.4613 77.8206 17.4613C75.4416 17.4613 73.5131 19.3898 73.5131 21.7688C73.5131 24.1478 75.4416 26.0764 77.8206 26.0764Z" fill="#BF71F7"/>
<path d="M64.9753 17.2288C66.9715 17.2288 68.5897 15.6106 68.5897 13.6144C68.5897 11.6182 66.9715 10 64.9753 10C62.9791 10 61.3608 11.6182 61.3608 13.6144C61.3608 15.6106 62.9791 17.2288 64.9753 17.2288Z" fill="#BF71F7"/>
</svg>
