<svg width="134" height="127" viewBox="0 0 134 127" fill="none" xmlns="http://www.w3.org/2000/svg">
<path d="M49.5 18H23C21.3431 18 20 19.3431 20 21V46" stroke="#BF71F7" stroke-width="4" stroke-linecap="round"/>
<path d="M84 18H110.5C112.157 18 113.5 19.3431 113.5 21V46" stroke="#BF71F7" stroke-width="4" stroke-linecap="round"/>
<path d="M49.5 109H23C21.3431 109 20 107.657 20 106V81" stroke="#BF71F7" stroke-width="4" stroke-linecap="round"/>
<path d="M84 109H110.5C112.157 109 113.5 107.657 113.5 106V81" stroke="#BF71F7" stroke-width="4" stroke-linecap="round"/>
<path d="M34 70.9854L57.1564 73.418C57.7338 73.4787 58.2441 73.8202 58.5204 74.3307L61.1248 79.1432C61.5701 79.9662 62.801 79.7813 62.9848 78.8637L63.4784 76.399C63.5644 75.9699 63.5072 75.5244 63.3156 75.1309L59.3843 67.0545C59.073 66.4149 59.1248 65.6581 59.5204 65.0669L65.0142 56.8566C65.2456 56.5108 65.3634 56.1014 65.3511 55.6855L64.8837 39.8167C64.8791 39.6605 64.8379 39.5076 64.7636 39.3702L60.4674 31.4313C59.6441 29.9099 57.3499 30.3647 57.1691 32.0851L54.7365 55.2415C54.6759 55.8189 54.3344 56.3292 53.8238 56.6055L33.3462 67.6872C31.8249 68.5105 32.2796 70.8047 34 70.9854Z" fill="#E4CAFF"/>
<path d="M99.7343 56.7706L76.5779 54.338C76.0005 54.2773 75.4902 53.9359 75.2139 53.4253L70.5444 44.7968C70.043 43.8701 68.6344 44.249 68.6654 45.3021L69.0159 57.2019C69.0282 57.6178 68.9104 58.0272 68.679 58.373L63.1851 66.5833C62.7896 67.1745 62.7377 67.9313 63.0491 68.5709L66.9804 76.6472C67.172 77.0408 67.2291 77.4862 67.1432 77.9154L66.1772 82.7382C66.1313 82.9673 66.1671 83.2051 66.2783 83.4106L73.2669 96.3247C74.0902 97.8461 76.3844 97.3913 76.5651 95.671L78.9977 72.5145C79.0584 71.9372 79.3999 71.4268 79.9104 71.1505L100.388 60.0688C101.909 59.2455 101.455 56.9513 99.7343 56.7706Z" fill="#E4CAFF"/>
</svg>
