<svg width="134" height="127" viewBox="0 0 134 127" fill="none" xmlns="http://www.w3.org/2000/svg">
<g clip-path="url(#clip0_173_5792)">
<path d="M94.6916 70.5421C94.7224 67.3202 94.7102 60.2489 94.1495 53.2611C94.1989 56.2059 94.2759 58.9007 94.3761 60.3108C94.432 61.1197 94.5552 65.3546 94.6916 70.5417V70.5421Z" fill="#E4CAFF"/>
<path d="M67.7462 9.94127C67.8418 7.67756 67.7197 5.25297 69.6383 5.39157C70.5589 5.45853 72.1452 5.69307 74.1077 6.08552C76.2834 6.52129 75.9766 18.3184 75.9766 18.3184L83.8646 21.3853C84.1242 12.8481 81.9901 2.93466 79.8606 2.32783C76.292 1.31014 71.0552 -0.811391 65.8511 0.326926C62.3739 1.08712 61.4433 13.8523 61.4433 13.8523L67.5284 15.4462C67.5287 15.4462 67.5925 13.563 67.7464 9.94074L67.7462 9.94127Z" fill="#E4CAFF"/>
<path d="M31.0447 53.0934C32.3262 53.5675 34.4382 54.2639 36.9386 55.0481C38.8074 49.8725 41.9767 45.9248 41.9767 45.9248C41.9767 45.9248 42.7082 44.0076 46.3831 44.7797C50.0584 45.5506 50.2299 47.2282 50.2299 47.2282C50.2299 47.2282 47.8494 51.0871 45.5352 56.2878C45.3923 56.609 45.2039 57.0082 45.0611 57.4999C50.8876 59.1982 56.5176 60.7022 58.1364 60.8493C61.3233 61.1408 69.328 61.4906 70.8487 53.7874C72.349 46.1851 73.8339 41.548 75.099 38.6523C75.3522 38.0199 75.5796 37.4961 75.7468 37.118C76.0913 36.3392 77.1393 34.7773 78.664 33.2462V33.244C78.6683 33.2329 78.6751 33.2275 78.6837 33.2254C80.7208 31.1905 83.6029 29.2193 86.8206 29.2315C86.9899 29.2315 87.1969 29.2522 87.4268 29.2877C85.5337 27.1822 83.3766 25.3894 81.08 24.5038C80.5575 24.3025 61.5898 16.8059 55.923 17.608C55.7601 17.6313 55.6082 17.6531 55.4621 17.6739C55.7371 17.6341 55.923 17.608 55.923 17.608C55.9226 17.6076 42.9311 17.9299 34.3401 26.5139C29.852 30.9974 25.9118 39.0411 23.4381 46.7695C23.4063 48.731 25.9089 51.1949 31.0447 53.0934Z" fill="#E4CAFF"/>
<path d="M56.3988 66.6087C53.8447 66.14 49.1002 64.8398 44.043 63.3449C43.2732 66.3907 43.9274 71.6225 43.9274 71.6225C43.9274 71.6225 42.933 73.9962 39.0136 73.1286C35.6738 72.387 35.7598 69.9772 35.7598 69.9772C35.7598 69.9772 34.9061 65.0866 35.6584 60.7821C30.8448 59.2664 26.7549 57.9057 25.2506 57.3281C23.4398 56.6352 22.1343 55.6691 21.1936 54.5903C21.1241 55.0182 21.0625 56.7463 21.0045 57.1577C17.5928 81.4585 24.6744 91.9241 25.1761 94.1342C25.8504 97.1051 38.795 103.335 51.291 107.899C58.5398 110.546 66.6324 110.033 69.8471 109.802L70.0824 109.789C70.5937 100.393 71.9866 75.9344 72.6695 60.9662C71.5873 66.4619 62.5137 67.7291 56.3986 66.6094L56.3988 66.6087Z" fill="#E4CAFF"/>
<path d="M94.6916 70.5421C94.5552 65.3543 94.4331 61.1215 94.3758 60.3084C94.2755 58.9005 94.1985 56.2053 94.1491 53.2597C93.6485 47.0382 92.0447 40.3604 90.6729 36.889C88.3673 31.046 81.6717 38.375 79.7811 42.9895C77.8232 47.768 75.9698 102.851 75.7893 108.311C80.4643 107.093 87.1605 105.346 87.9819 104.058C89.7211 101.334 90.6638 98.6972 91.0982 96.4521C91.3864 94.9571 95.2529 93.5592 95.2529 93.5592C95.2529 93.5592 94.9789 81.6792 94.7315 72.0918L94.6635 72.345C94.6635 72.3468 94.6821 71.6858 94.6921 70.5417L94.6916 70.5421Z" fill="#E4CAFF"/>
<path d="M111.834 46.5896C111.834 46.5896 110.843 34.7839 110.618 32.4894C110.075 26.9486 105.077 9.1291 88.0401 22.7819L92.5532 27.7054C92.5532 27.7054 104.099 17.3306 104.534 42.0513C104.57 44.1435 104.709 47.0661 105.967 64.6554C107.36 84.1024 99.7545 84.2097 99.7545 84.2097L100.098 92.4794C100.098 92.4794 102.922 91.7403 105.84 90.5125C109.968 88.7733 113.924 81.4948 113.924 70.8253C113.92 66.6039 111.834 46.5877 111.834 46.5877L111.834 46.5896Z" fill="#E4CAFF"/>
<path d="M52.1729 13.5832L55.9395 13.0045V9.81702L56.6642 7.20993C56.6642 7.20993 53.1859 8.80374 52.1729 10.3968C51.1589 11.9906 50.7231 12.8596 50.7231 13.5837C50.7231 14.3084 52.1729 13.5833 52.1729 13.5833L52.1729 13.5832Z" fill="#E4CAFF"/>
<g filter="url(#filter0_d_173_5792)">
<mask id="path-8-outside-1_173_5792" maskUnits="userSpaceOnUse" x="93.784" y="78.997" width="42.0566" height="52.8094" fill="black">
<rect fill="white" x="93.784" y="78.997" width="42.0566" height="52.8094"/>
<path d="M108.223 99.5102L108.524 99.6106L105.813 103.883L109.382 105.072L109.174 105.389L105.605 104.199L102.893 108.471L102.592 108.371L105.326 104.107L101.757 102.917L101.943 102.593L105.512 103.782L108.223 99.5102ZM114.617 102.594C114.986 102.541 115.337 102.541 115.688 102.541C121.797 102.119 127.239 99.6615 129.362 96.2735C131.644 92.7626 131.135 89.7258 128.133 88.7254C125.395 87.8128 120.971 88.9715 117.074 91.7101L116.987 91.4468C121.603 88.3045 126.676 86.777 129.625 87.7599C132.996 88.8832 133.558 92.2886 131.1 96.1505C129.064 99.4508 123.868 101.873 117.637 102.664C118.093 102.699 118.532 102.786 118.953 102.927C124.062 104.629 125.238 109.351 121.885 114.67C117.129 122.096 107.562 125.344 97.8019 122.852L98.0301 122.518C106.86 124.817 115.742 121.517 120.376 114.284C123.57 109.264 122.622 104.91 118.093 103.401C116.987 103.032 115.758 102.857 114.407 102.874L114.617 102.594Z"/>
</mask>
<path d="M108.223 99.5102L108.524 99.6106L105.813 103.883L109.382 105.072L109.174 105.389L105.605 104.199L102.893 108.471L102.592 108.371L105.326 104.107L101.757 102.917L101.943 102.593L105.512 103.782L108.223 99.5102ZM114.617 102.594C114.986 102.541 115.337 102.541 115.688 102.541C121.797 102.119 127.239 99.6615 129.362 96.2735C131.644 92.7626 131.135 89.7258 128.133 88.7254C125.395 87.8128 120.971 88.9715 117.074 91.7101L116.987 91.4468C121.603 88.3045 126.676 86.777 129.625 87.7599C132.996 88.8832 133.558 92.2886 131.1 96.1505C129.064 99.4508 123.868 101.873 117.637 102.664C118.093 102.699 118.532 102.786 118.953 102.927C124.062 104.629 125.238 109.351 121.885 114.67C117.129 122.096 107.562 125.344 97.8019 122.852L98.0301 122.518C106.86 124.817 115.742 121.517 120.376 114.284C123.57 109.264 122.622 104.91 118.093 103.401C116.987 103.032 115.758 102.857 114.407 102.874L114.617 102.594Z" fill="#BF71F7"/>
<path d="M108.223 99.5102L108.481 98.7377L107.877 98.5364L107.536 99.0739L108.223 99.5102ZM108.524 99.6106L109.212 100.047L109.77 99.1674L108.782 98.8381L108.524 99.6106ZM105.813 103.883L105.126 103.446L104.567 104.326L105.556 104.655L105.813 103.883ZM109.382 105.072L110.062 105.52L110.645 104.635L109.64 104.3L109.382 105.072ZM109.174 105.389L108.916 106.161L109.51 106.359L109.854 105.837L109.174 105.389ZM105.605 104.199L105.862 103.427L105.258 103.226L104.917 103.763L105.605 104.199ZM102.893 108.471L102.636 109.244L103.24 109.445L103.581 108.908L102.893 108.471ZM102.592 108.371L101.907 107.931L101.342 108.813L102.335 109.144L102.592 108.371ZM105.326 104.107L106.012 104.546L106.577 103.665L105.584 103.334L105.326 104.107ZM101.757 102.917L101.05 102.513L100.558 103.376L101.5 103.69L101.757 102.917ZM101.943 102.593L102.2 101.82L101.567 101.609L101.236 102.189L101.943 102.593ZM105.512 103.782L105.254 104.555L105.858 104.756L106.199 104.219L105.512 103.782ZM107.966 100.283L108.267 100.383L108.782 98.8381L108.481 98.7377L107.966 100.283ZM107.837 99.1743L105.126 103.446L106.501 104.319L109.212 100.047L107.837 99.1743ZM105.556 104.655L109.125 105.845L109.64 104.3L106.071 103.11L105.556 104.655ZM108.702 104.624L108.493 104.941L109.854 105.837L110.062 105.52L108.702 104.624ZM109.431 104.616L105.862 103.427L105.347 104.972L108.916 106.161L109.431 104.616ZM104.917 103.763L102.206 108.035L103.581 108.908L106.292 104.636L104.917 103.763ZM103.151 107.699L102.849 107.599L102.335 109.144L102.636 109.244L103.151 107.699ZM103.277 108.811L106.012 104.546L104.641 103.667L101.907 107.931L103.277 108.811ZM105.584 103.334L102.015 102.145L101.5 103.69L105.069 104.879L105.584 103.334ZM102.464 103.321L102.65 102.997L101.236 102.189L101.05 102.513L102.464 103.321ZM101.685 103.365L105.254 104.555L105.769 103.01L102.2 101.82L101.685 103.365ZM106.199 104.219L108.911 99.9465L107.536 99.0739L104.824 103.346L106.199 104.219ZM114.617 102.594L114.502 101.788L114.168 101.835L113.966 102.105L114.617 102.594ZM115.688 102.541L115.688 103.355L115.716 103.355L115.744 103.353L115.688 102.541ZM129.362 96.2735L128.68 95.8297L128.672 95.841L129.362 96.2735ZM117.074 91.7101L116.302 91.9677L116.648 93.0052L117.543 92.3763L117.074 91.7101ZM116.987 91.4468L116.528 90.7737L116.019 91.1202L116.214 91.7044L116.987 91.4468ZM131.1 96.1505L130.413 95.7134L130.407 95.723L131.1 96.1505ZM117.637 102.664L117.534 101.856L117.574 103.476L117.637 102.664ZM121.885 114.67L122.571 115.109L122.574 115.104L121.885 114.67ZM97.8019 122.852L97.1299 122.392L96.4726 123.352L97.6005 123.64L97.8019 122.852ZM98.0301 122.518L98.2353 121.73L97.6813 121.586L97.3581 122.058L98.0301 122.518ZM120.376 114.284L121.061 114.723L121.063 114.721L120.376 114.284ZM114.407 102.874L113.755 102.386L112.762 103.71L114.417 103.689L114.407 102.874ZM114.733 103.4C115.035 103.356 115.33 103.355 115.688 103.355L115.688 101.727C115.344 101.727 114.937 101.725 114.502 101.788L114.733 103.4ZM115.744 103.353C118.886 103.136 121.871 102.396 124.358 101.26C126.834 100.13 128.877 98.5802 130.052 96.706L128.672 95.841C127.723 97.3548 125.984 98.728 123.682 99.7788C121.39 100.825 118.599 101.524 115.632 101.729L115.744 103.353ZM130.045 96.7172C131.248 94.867 131.795 93.0233 131.533 91.4261C131.261 89.769 130.142 88.5367 128.391 87.9529L127.876 89.4979C129.126 89.9145 129.763 90.7008 129.926 91.69C130.098 92.739 129.759 94.1691 128.68 95.8298L130.045 96.7172ZM128.391 87.9529C126.815 87.4277 124.849 87.5211 122.828 88.062C120.792 88.6068 118.626 89.6248 116.606 91.0439L117.543 92.3763C119.42 91.0568 121.414 90.1262 123.249 89.6352C125.098 89.1402 126.713 89.1105 127.876 89.4979L128.391 87.9529ZM117.847 91.4526L117.759 91.1893L116.214 91.7044L116.302 91.9677L117.847 91.4526ZM117.445 92.12C119.693 90.5895 122.04 89.4622 124.161 88.8375C126.306 88.2062 128.121 88.117 129.368 88.5324L129.883 86.9874C128.18 86.4199 125.985 86.603 123.701 87.2753C121.395 87.9542 118.897 89.1618 116.528 90.7737L117.445 92.12ZM129.368 88.5324C130.802 89.0104 131.548 89.9211 131.746 91.0668C131.953 92.27 131.58 93.8799 130.413 95.7134L131.787 96.5877C133.078 94.5592 133.652 92.5354 133.351 90.7897C133.039 88.9863 131.819 87.6327 129.883 86.9874L129.368 88.5324ZM130.407 95.723C129.5 97.194 127.84 98.5363 125.59 99.6139C123.349 100.687 120.579 101.47 117.534 101.856L117.739 103.471C120.926 103.067 123.869 102.244 126.293 101.083C128.708 99.9264 130.665 98.4073 131.793 96.5781L130.407 95.723ZM117.574 103.476C117.966 103.506 118.34 103.581 118.696 103.699L119.211 102.154C118.724 101.992 118.22 101.892 117.699 101.852L117.574 103.476ZM118.696 103.699C121.042 104.481 122.369 105.904 122.802 107.64C123.244 109.41 122.801 111.691 121.196 114.236L122.574 115.104C124.323 112.331 124.967 109.591 124.382 107.245C123.788 104.864 121.973 103.075 119.211 102.154L118.696 103.699ZM121.2 114.231C116.666 121.308 107.488 124.484 98.0034 122.063L97.6005 123.64C107.636 126.203 117.591 122.883 122.571 115.109L121.2 114.231ZM98.474 123.311L98.7022 122.978L97.3581 122.058L97.1299 122.392L98.474 123.311ZM97.8249 123.306C106.97 125.687 116.224 122.274 121.061 114.723L119.69 113.845C115.26 120.759 106.749 123.947 98.2353 121.73L97.8249 123.306ZM121.063 114.721C122.726 112.107 123.391 109.544 122.927 107.357C122.454 105.123 120.84 103.458 118.351 102.628L117.836 104.173C119.875 104.853 121 106.12 121.334 107.695C121.678 109.317 121.22 111.441 119.689 113.847L121.063 114.721ZM118.351 102.628C117.146 102.227 115.825 102.042 114.396 102.06L114.417 103.689C115.692 103.672 116.829 103.838 117.836 104.173L118.351 102.628ZM115.058 103.363L115.269 103.082L113.966 102.105L113.755 102.386L115.058 103.363Z" fill="#BF71F7" mask="url(#path-8-outside-1_173_5792)"/>
</g>
</g>
<defs>
<filter id="filter0_d_173_5792" x="85.3825" y="74.9159" width="59.1403" height="69.6055" filterUnits="userSpaceOnUse" color-interpolation-filters="sRGB">
<feFlood flood-opacity="0" result="BackgroundImageFix"/>
<feColorMatrix in="SourceAlpha" type="matrix" values="0 0 0 0 0 0 0 0 0 0 0 0 0 0 0 0 0 0 127 0" result="hardAlpha"/>
<feOffset dy="4"/>
<feGaussianBlur stdDeviation="5"/>
<feComposite in2="hardAlpha" operator="out"/>
<feColorMatrix type="matrix" values="0 0 0 0 0 0 0 0 0 0 0 0 0 0 0 0 0 0 0.15 0"/>
<feBlend mode="normal" in2="BackgroundImageFix" result="effect1_dropShadow_173_5792"/>
<feBlend mode="normal" in="SourceGraphic" in2="effect1_dropShadow_173_5792" result="shape"/>
</filter>
<clipPath id="clip0_173_5792">
<rect width="134" height="127" fill="white"/>
</clipPath>
</defs>
</svg>
