<svg width="134" height="127" viewBox="0 0 134 127" fill="none" xmlns="http://www.w3.org/2000/svg">
<g clip-path="url(#clip0_173_5575)">
<path d="M94.6916 72.5421C94.7224 69.3202 94.7102 62.2489 94.1495 55.2611C94.1989 58.2059 94.2759 60.9007 94.3761 62.3108C94.432 63.1197 94.5552 67.3546 94.6916 72.5417V72.5421Z" fill="#E4CAFF"/>
<path d="M67.7462 11.9413C67.8418 9.67756 67.7197 7.25297 69.6383 7.39157C70.5589 7.45853 72.1452 7.69307 74.1078 8.08552C76.2834 8.52129 75.9766 20.3184 75.9766 20.3184L83.8646 23.3853C84.1242 14.8481 81.9901 4.93466 79.8606 4.32783C76.292 3.31014 71.0552 1.18861 65.8512 2.32693C62.3739 3.08712 61.4433 15.8523 61.4433 15.8523L67.5284 17.4462C67.5287 17.4462 67.5925 15.563 67.7464 11.9407L67.7462 11.9413Z" fill="#E4CAFF"/>
<path d="M31.0447 55.0934C32.3262 55.5675 34.4382 56.2639 36.9386 57.0481C38.8074 51.8725 41.9767 47.9248 41.9767 47.9248C41.9767 47.9248 42.7082 46.0076 46.3831 46.7797C50.0584 47.5506 50.2299 49.2282 50.2299 49.2282C50.2299 49.2282 47.8494 53.0871 45.5352 58.2878C45.3923 58.609 45.2039 59.0082 45.0611 59.4999C50.8876 61.1982 56.5176 62.7022 58.1364 62.8493C61.3233 63.1408 69.328 63.4906 70.8487 55.7874C72.349 48.1851 73.8339 43.548 75.099 40.6523C75.3522 40.0199 75.5796 39.4961 75.7468 39.118C76.0913 38.3392 77.1393 36.7773 78.664 35.2462V35.244C78.6683 35.2329 78.6751 35.2275 78.6837 35.2254C80.7208 33.1905 83.6029 31.2193 86.8206 31.2315C86.9899 31.2315 87.1969 31.2522 87.4268 31.2877C85.5337 29.1822 83.3766 27.3894 81.08 26.5038C80.5575 26.3025 61.5898 18.8059 55.923 19.608C55.7601 19.6313 55.6082 19.6531 55.4621 19.6739C55.7371 19.6341 55.923 19.608 55.923 19.608C55.9226 19.6076 42.9311 19.9299 34.3401 28.5139C29.852 32.9974 25.9118 41.0411 23.4381 48.7695C23.4063 50.731 25.9089 53.1949 31.0447 55.0934Z" fill="#E4CAFF"/>
<path d="M56.3988 68.6087C53.8446 68.14 49.1002 66.8398 44.043 65.3449C43.2731 68.3907 43.9273 73.6225 43.9273 73.6225C43.9273 73.6225 42.9329 75.9962 39.0136 75.1286C35.6738 74.387 35.7598 71.9772 35.7598 71.9772C35.7598 71.9772 34.9061 67.0866 35.6584 62.7821C30.8448 61.2664 26.7549 59.9057 25.2506 59.3281C23.4398 58.6352 22.1343 57.6691 21.1936 56.5903C21.1241 57.0182 21.0625 58.7463 21.0045 59.1577C17.5928 83.4585 24.6744 93.9241 25.1761 96.1342C25.8504 99.1051 38.795 105.335 51.291 109.899C58.5398 112.546 66.6324 112.033 69.8471 111.802L70.0824 111.789C70.5937 102.393 71.9865 77.9344 72.6695 62.9662C71.5873 68.4619 62.5137 69.7291 56.3986 68.6094L56.3988 68.6087Z" fill="#E4CAFF"/>
<path d="M94.6916 72.5421C94.5552 67.3543 94.4331 63.1215 94.3758 62.3084C94.2755 60.9005 94.1985 58.2053 94.1491 55.2597C93.6485 49.0382 92.0447 42.3604 90.6729 38.889C88.3673 33.046 81.6717 40.375 79.7811 44.9895C77.8232 49.768 75.9698 104.851 75.7893 110.311C80.4643 109.093 87.1605 107.346 87.9819 106.058C89.7211 103.334 90.6638 100.697 91.0982 98.4521C91.3864 96.9571 95.2529 95.5592 95.2529 95.5592C95.2529 95.5592 94.9789 83.6792 94.7315 74.0918L94.6635 74.345C94.6635 74.3468 94.6821 73.6858 94.6921 72.5417L94.6916 72.5421Z" fill="#E4CAFF"/>
<path d="M111.834 48.5896C111.834 48.5896 110.843 36.7839 110.618 34.4894C110.075 28.9486 105.077 11.1291 88.0401 24.7819L92.5532 29.7054C92.5532 29.7054 104.099 19.3306 104.534 44.0513C104.57 46.1435 104.709 49.0661 105.967 66.6554C107.36 86.1024 99.7545 86.2097 99.7545 86.2097L100.098 94.4794C100.098 94.4794 102.922 93.7403 105.84 92.5125C109.968 90.7733 113.924 83.4948 113.924 72.8253C113.92 68.6039 111.834 48.5877 111.834 48.5877L111.834 48.5896Z" fill="#E4CAFF"/>
<path d="M52.1729 15.5832L55.9395 15.0045V11.817L56.6642 9.20993C56.6642 9.20993 53.1859 10.8037 52.1729 12.3968C51.1589 13.9906 50.7231 14.8596 50.7231 15.5837C50.7231 16.3084 52.1729 15.5833 52.1729 15.5833L52.1729 15.5832Z" fill="#E4CAFF"/>
<g filter="url(#filter0_d_173_5575)">
<mask id="path-8-outside-1_173_5575" maskUnits="userSpaceOnUse" x="87.57" y="81.3135" width="48.3818" height="46.4842" fill="black">
<rect fill="white" x="87.57" y="81.3135" width="48.3818" height="46.4842"/>
<path d="M97.8654 105.716L98.1667 105.816L95.4554 110.088L99.0244 111.278L98.8158 111.594L95.2468 110.405L92.5356 114.677L92.2343 114.577L94.9687 110.312L91.3997 109.123L91.5851 108.798L95.1541 109.988L97.8654 105.716ZM121.889 119.624C122.11 119.363 124.661 116.33 124.661 116.33L125.022 116.451L118.636 124.766L98.8116 118.159L99.0727 117.778C114.297 113.077 123.295 111.791 128.075 104.279C131.208 99.2978 130.806 95.0799 127.01 93.8148C123.575 92.6701 118.474 94.5182 114.296 98.4149L114.256 98.1337C119.177 93.6143 124.941 91.3846 128.677 92.6297C133.136 94.1157 133.738 98.7353 130.304 104.219C126.147 110.666 117.169 112.695 102.467 117.034L116.205 121.613C118.736 122.456 120.343 121.452 121.889 119.624Z"/>
</mask>
<path d="M97.8654 105.716L98.1667 105.816L95.4554 110.088L99.0244 111.278L98.8158 111.594L95.2468 110.405L92.5356 114.677L92.2343 114.577L94.9687 110.312L91.3997 109.123L91.5851 108.798L95.1541 109.988L97.8654 105.716ZM121.889 119.624C122.11 119.363 124.661 116.33 124.661 116.33L125.022 116.451L118.636 124.766L98.8116 118.159L99.0727 117.778C114.297 113.077 123.295 111.791 128.075 104.279C131.208 99.2978 130.806 95.0799 127.01 93.8148C123.575 92.6701 118.474 94.5182 114.296 98.4149L114.256 98.1337C119.177 93.6143 124.941 91.3846 128.677 92.6297C133.136 94.1157 133.738 98.7353 130.304 104.219C126.147 110.666 117.169 112.695 102.467 117.034L116.205 121.613C118.736 122.456 120.343 121.452 121.889 119.624Z" fill="#BF71F7"/>
<path d="M97.8654 105.716L98.1228 104.943L97.5189 104.742L97.1779 105.279L97.8654 105.716ZM98.1667 105.816L98.8542 106.252L99.4123 105.373L98.4241 105.044L98.1667 105.816ZM95.4554 110.088L94.7679 109.652L94.2097 110.531L95.1979 110.861L95.4554 110.088ZM99.0244 111.278L99.7045 111.726L100.287 110.84L99.2819 110.505L99.0244 111.278ZM98.8158 111.594L98.5584 112.367L99.1519 112.565L99.4959 112.042L98.8158 111.594ZM95.2468 110.405L95.5043 109.632L94.9004 109.431L94.5593 109.969L95.2468 110.405ZM92.5356 114.677L92.2781 115.45L92.882 115.651L93.2231 115.113L92.5356 114.677ZM92.2343 114.577L91.5488 114.137L90.9838 115.018L91.9768 115.349L92.2343 114.577ZM94.9687 110.312L95.6542 110.752L96.2192 109.871L95.2262 109.54L94.9687 110.312ZM91.3997 109.123L90.6927 108.719L90.1999 109.581L91.1423 109.895L91.3997 109.123ZM91.5851 108.798L91.8426 108.026L91.2093 107.815L90.8781 108.394L91.5851 108.798ZM95.1541 109.988L94.8967 110.76L95.5005 110.962L95.8416 110.424L95.1541 109.988ZM97.6079 106.488L97.9092 106.589L98.4241 105.044L98.1228 104.943L97.6079 106.488ZM97.4791 105.38L94.7679 109.652L96.1429 110.525L98.8542 106.252L97.4791 105.38ZM95.1979 110.861L98.7669 112.05L99.2819 110.505L95.7129 109.316L95.1979 110.861ZM98.3443 110.83L98.1357 111.147L99.4959 112.042L99.7045 111.726L98.3443 110.83ZM99.0733 110.822L95.5043 109.632L94.9894 111.177L98.5584 112.367L99.0733 110.822ZM94.5593 109.969L91.8481 114.241L93.2231 115.113L95.9343 110.841L94.5593 109.969ZM92.793 113.904L92.4918 113.804L91.9768 115.349L92.2781 115.45L92.793 113.904ZM92.9198 115.016L95.6542 110.752L94.2833 109.873L91.5488 114.137L92.9198 115.016ZM95.2262 109.54L91.6572 108.35L91.1423 109.895L94.7113 111.085L95.2262 109.54ZM92.1067 109.527L92.2921 109.202L90.8781 108.394L90.6927 108.719L92.1067 109.527ZM91.3276 109.571L94.8967 110.76L95.4116 109.215L91.8426 108.026L91.3276 109.571ZM95.8416 110.424L98.5529 106.152L97.1779 105.279L94.4666 109.551L95.8416 110.424ZM121.889 119.624L121.268 119.098L121.889 119.624ZM124.661 116.33L124.918 115.558L124.394 115.383L124.038 115.806L124.661 116.33ZM125.022 116.451L125.668 116.947L126.365 116.04L125.28 115.678L125.022 116.451ZM118.636 124.766L118.378 125.539L118.928 125.722L119.282 125.262L118.636 124.766ZM98.8116 118.159L98.1396 117.699L97.53 118.59L98.5542 118.932L98.8116 118.159ZM99.0727 117.778L98.8325 116.999L98.5611 117.083L98.4007 117.318L99.0727 117.778ZM128.075 104.279L128.762 104.716L128.764 104.713L128.075 104.279ZM114.296 98.4149L113.49 98.5301L113.711 100.074L114.852 99.0103L114.296 98.4149ZM114.256 98.1337L113.705 97.534L113.389 97.8242L113.45 98.2489L114.256 98.1337ZM130.304 104.219L130.989 104.66L130.994 104.651L130.304 104.219ZM102.467 117.034L102.237 116.253L99.7502 116.987L102.21 117.807L102.467 117.034ZM122.511 120.15C122.622 120.018 123.317 119.193 123.981 118.403C124.314 118.008 124.64 117.621 124.882 117.332C125.003 117.188 125.104 117.069 125.174 116.985C125.209 116.943 125.237 116.911 125.255 116.888C125.265 116.877 125.272 116.869 125.277 116.863C125.279 116.86 125.281 116.858 125.282 116.856C125.283 116.856 125.283 116.855 125.284 116.855C125.284 116.855 125.284 116.854 125.284 116.854C125.284 116.854 125.284 116.854 125.284 116.854C125.284 116.854 125.284 116.854 124.661 116.33C124.038 115.806 124.038 115.806 124.038 115.806C124.038 115.806 124.038 115.806 124.038 115.806C124.038 115.806 124.037 115.806 124.037 115.807C124.037 115.807 124.036 115.808 124.036 115.808C124.035 115.81 124.033 115.812 124.03 115.815C124.026 115.821 124.018 115.829 124.009 115.84C123.99 115.862 123.963 115.895 123.928 115.937C123.858 116.02 123.757 116.14 123.636 116.284C123.393 116.572 123.067 116.96 122.735 117.355C122.069 118.147 121.377 118.969 121.268 119.098L122.511 120.15ZM124.403 117.103L124.765 117.223L125.28 115.678L124.918 115.558L124.403 117.103ZM124.377 115.955L117.99 124.27L119.282 125.262L125.668 116.947L124.377 115.955ZM118.893 123.994L99.0691 117.387L98.5542 118.932L118.378 125.539L118.893 123.994ZM99.4837 118.619L99.7448 118.237L98.4007 117.318L98.1396 117.699L99.4837 118.619ZM99.313 118.556C106.857 116.226 113.002 114.703 117.786 112.841C122.617 110.962 126.241 108.677 128.762 104.716L127.388 103.842C125.128 107.393 121.864 109.507 117.195 111.324C112.479 113.159 106.513 114.628 98.8325 116.999L99.313 118.556ZM128.764 104.713C130.381 102.141 131.159 99.6576 130.951 97.5724C130.735 95.4154 129.467 93.7755 127.267 93.0423L126.752 94.5873C128.348 95.1192 129.179 96.2208 129.33 97.7343C129.489 99.3196 128.901 101.436 127.385 103.845L128.764 104.713ZM127.267 93.0423C125.318 92.3925 122.985 92.615 120.654 93.4586C118.312 94.3064 115.9 95.8055 113.741 97.8194L114.852 99.0103C116.87 97.1275 119.097 95.7542 121.209 94.99C123.332 94.2216 125.267 94.0923 126.752 94.5873L127.267 93.0423ZM115.102 98.2997L115.062 98.0185L113.45 98.2489L113.49 98.5301L115.102 98.2997ZM114.807 98.7334C117.204 96.532 119.789 94.9049 122.202 93.9804C124.631 93.0498 126.798 92.862 128.419 93.4022L128.934 91.8572C126.819 91.1523 124.237 91.4567 121.619 92.4596C118.986 93.4685 116.229 95.216 113.705 97.534L114.807 98.7334ZM128.419 93.4022C130.38 94.0557 131.411 95.3427 131.644 97.0362C131.886 98.7994 131.278 101.13 129.614 103.786L130.994 104.651C132.765 101.824 133.572 99.103 133.257 96.8142C132.933 94.4555 131.432 92.6898 128.934 91.8572L128.419 93.4022ZM129.62 103.777C127.674 106.794 124.573 108.832 120.035 110.662C115.481 112.498 109.623 114.073 102.237 116.253L102.698 117.815C110.013 115.656 115.995 114.047 120.644 112.172C125.31 110.291 128.777 108.09 130.989 104.66L129.62 103.777ZM102.21 117.807L115.948 122.385L116.463 120.84L102.725 116.262L102.21 117.807ZM115.948 122.385C117.369 122.859 118.607 122.833 119.726 122.374C120.815 121.926 121.705 121.103 122.511 120.15L121.268 119.098C120.527 119.973 119.841 120.566 119.107 120.867C118.403 121.156 117.573 121.21 116.463 120.84L115.948 122.385Z" fill="#BF71F7" mask="url(#path-8-outside-1_173_5575)"/>
</g>
</g>
<defs>
<filter id="filter0_d_173_5575" x="79.4301" y="77.0969" width="65.6337" height="63.5971" filterUnits="userSpaceOnUse" color-interpolation-filters="sRGB">
<feFlood flood-opacity="0" result="BackgroundImageFix"/>
<feColorMatrix in="SourceAlpha" type="matrix" values="0 0 0 0 0 0 0 0 0 0 0 0 0 0 0 0 0 0 127 0" result="hardAlpha"/>
<feOffset dy="4"/>
<feGaussianBlur stdDeviation="5"/>
<feComposite in2="hardAlpha" operator="out"/>
<feColorMatrix type="matrix" values="0 0 0 0 0 0 0 0 0 0 0 0 0 0 0 0 0 0 0.15 0"/>
<feBlend mode="normal" in2="BackgroundImageFix" result="effect1_dropShadow_173_5575"/>
<feBlend mode="normal" in="SourceGraphic" in2="effect1_dropShadow_173_5575" result="shape"/>
</filter>
<clipPath id="clip0_173_5575">
<rect width="134" height="127" fill="white"/>
</clipPath>
</defs>
</svg>
