<svg width="130" height="127" viewBox="0 0 130 127" fill="none" xmlns="http://www.w3.org/2000/svg">
<path d="M28.0738 64.05H30.8094C34.6941 64.05 38.4975 65.1622 41.7701 67.2552C44.1912 68.8037 46.2568 70.8476 47.8308 73.2523L49.8864 76.3928L50.152 76.7915C52.4424 80.2295 53.3017 84.4251 52.5473 88.4867C52.3894 89.337 52.1596 90.18 51.8654 90.9933C51.2279 92.7559 50.8962 94.6315 50.8962 96.5058V98.2602C50.8962 99.5886 50.7951 100.915 50.5936 102.228L50.3661 103.711C50.0467 105.794 49.8979 107.898 49.714 109.997C49.597 111.332 49.4021 112.85 49.0785 114.039C48.5115 116.121 47.5134 119.128 46.8924 120.954C46.6265 121.736 45.668 122.014 45.0212 121.5C44.6615 121.214 44.4956 120.75 44.5849 120.299C44.8995 118.71 45.5828 114.878 45.4431 112.187C45.386 111.089 45.1725 109.808 44.9107 108.582C44.5767 107.018 42.5266 106.97 42.0096 108.484L40.466 113.83C40.1491 114.927 39.7488 115.999 39.2687 117.036L35.4206 125.345C35.1159 126.003 34.5396 126.495 33.8422 126.694L33.3044 126.847C31.13 127.465 29.4513 124.917 30.8768 123.163C31.0269 122.978 31.1476 122.772 31.2346 122.55L36.6857 108.669C36.734 108.546 36.7681 108.418 36.7874 108.287C37.0604 106.434 34.6109 105.52 33.6029 107.099L32.7986 108.36C32.7456 108.443 32.6868 108.522 32.6225 108.596L29.6674 112.024C26.8738 115.265 23.5642 118.022 19.8721 120.184L18.0627 121.244C15.7991 122.57 13.2734 119.976 14.6586 117.749C16.1895 115.286 18.0458 113.042 20.1771 111.077L31.2305 100.883C31.6644 100.483 31.9112 99.92 31.9112 99.3298C31.9112 97.9024 30.5256 96.8855 29.1639 97.3135L26.1127 98.2725C25.6724 98.411 25.2562 98.6169 24.879 98.8829L17.9753 103.753L6.44557 110.091C5.72259 110.488 4.83145 110.411 4.18732 109.896C3.2436 109.14 3.15941 107.735 4.00621 106.872L11.1084 99.6386L26.2 86.829C27.4376 85.7785 28.4617 84.4998 29.2164 83.0626L31.3846 78.934C32.2069 77.368 32.1063 75.4775 31.1224 74.0077C30.227 72.67 28.7233 71.8671 27.1136 71.8671H23.7017C22.3197 71.8671 20.9495 71.6117 19.6604 71.1136L15.7537 69.6043L15.2822 69.3537C13.398 68.3524 13.2681 65.7011 15.0455 64.5204C15.5073 64.2136 16.0495 64.05 16.6039 64.05H28.0738Z" fill="#BF71F7"/>
<path d="M87.837 70.3184L83.2799 70.7552C80.4278 71.0286 77.7198 69.4501 76.5523 66.8336C76.1706 65.9783 75.9734 65.0522 75.9734 64.1156L75.9734 61.2143L75.7984 58.9613C75.6395 56.9145 76.1844 54.8749 77.3427 53.1801C78.1086 52.0595 78.6145 50.7601 78.8166 49.4179C78.9833 48.3112 79.3536 47.2277 79.9044 46.2534L80.2738 45.6L82.2069 41.6496L84.266 37.9598C84.6017 37.3583 84.8246 36.7005 84.9236 36.0189L85.3314 33.2138C85.4209 32.5986 85.8788 32.1014 86.4846 31.9617C87.2489 31.7856 88.0206 32.2249 88.2592 32.9721L89.2738 36.15L89.7238 38.4C89.7238 39.8996 89.6651 41.4076 89.2031 42.8343C88.8744 43.8497 88.3402 45.2206 87.4738 46.95C86.8374 48.2202 86.8708 48.5612 87.2279 48.4178C90.1215 47.256 92.0766 44.4593 94.8926 43.1205C96.0434 42.5734 97.1464 41.9309 98.19 41.1997L99.0625 40.5884C101.765 38.6952 104.717 37.1876 107.835 36.1091L108.951 35.7232L111.883 35.0317C113.741 34.5937 114.699 37.165 113.008 38.0496L100.086 46.3808L97.5813 47.9722C96.8422 48.4418 97.4506 49.5704 98.2491 49.2111C98.2655 49.2037 98.2796 49.1979 98.2966 49.1918C98.671 49.057 103.571 47.2986 106.824 46.3808C110.226 45.421 115.164 44.4385 117.377 44.0153C118.142 43.869 118.912 43.763 119.687 43.6891L123.021 43.3717C124.828 43.1996 125.479 45.694 123.818 46.4266C122.987 46.7935 122.135 47.104 121.261 47.3546C119.062 47.9857 114.547 49.2682 111.324 50.1C107.162 51.1739 100.802 53.3841 99.8387 53.7212C99.7535 53.751 99.6788 53.7937 99.6087 53.8506C99.0514 54.3027 99.3397 55.2038 100.056 55.2484L102.324 55.3897L110.298 54.9178L120.347 53.4815C121.067 53.3786 121.756 53.8083 121.981 54.4998C122.244 55.3103 121.78 56.1745 120.956 56.39C118.289 57.0872 112.76 58.4626 109.974 58.65C105.148 58.9744 103.198 59.8769 102.643 60.1986C102.519 60.2701 102.4 60.3478 102.273 60.4144L100.251 61.4813C99.4476 61.9052 99.4569 63.0591 100.267 63.4699C100.435 63.5552 100.623 63.5966 100.811 63.5902L109.098 63.3099L110.112 63.3099C111.609 63.3099 111.875 65.4459 110.424 65.8128L97.9806 68.1483L87.837 70.3184Z" fill="#BF71F7"/>
<path fill-rule="evenodd" clip-rule="evenodd" d="M61.7291 36.1723L60.6968 26.7452L60.6178 25.9117C60.0124 19.5228 57.4027 9.41696 51.2692 11.3051C50.8795 11.4251 50.5108 11.715 50.166 12.1196C46.5642 16.3452 47.4815 22.6602 48.2837 28.1823C48.2971 28.2744 48.3105 28.3664 48.3238 28.4581L49.8964 36.8857C50.0416 37.6638 49.9646 38.4672 49.6743 39.2036L49.6177 39.3473C49.1654 40.4946 48.1977 41.3608 47.0076 41.6839C45.409 42.1179 43.72 41.4817 43.0687 39.9587C42.3121 38.1893 41.4396 35.5063 41.1238 32.0581C40.6462 26.8448 40.2238 22.1581 40.2238 17.4634C40.2238 13.4396 41.653 10.1077 43.8238 6.7377C46.1289 3.15902 49.8944 1.38499 53.981 0.343551C57.4412 -0.538273 60.8843 1.71306 62.8986 4.66154C63.3763 5.36094 63.8156 6.07331 64.145 6.7377C66.8014 12.096 67.7717 18.0711 68.7367 24.0137C68.9826 25.5274 69.228 27.039 69.501 28.5378L70.2611 32.7125C71.4398 32.568 72.6233 32.618 73.787 32.9578C74.2747 33.1002 74.7321 33.2839 75.1213 33.5202C76.4705 34.3395 77.4406 36.0598 78.0925 37.6662C78.9538 39.7887 79.3104 42.0681 79.6649 44.334C79.6933 44.5155 79.7217 44.697 79.7503 44.8783L82.3116 61.0937C82.4964 62.2632 82.8194 63.5039 83.1458 64.7575C84.1255 68.52 85.1351 72.3976 82.5238 74.8081C76.6738 80.2081 74.4238 82.0081 68.8438 85.6081C64.5088 88.4049 59.5469 89.8618 56.6726 90.5295C55.1177 90.8907 53.505 90.5997 52.0994 89.8431C50.1365 88.7866 48.7503 86.9062 48.3218 84.7186L44.1668 63.509C43.9382 62.3421 43.7481 61.1697 43.606 59.989C43.3204 57.6159 42.8622 53.6006 42.9238 52.7503C42.9922 51.8044 44.0039 50.6651 45.2703 49.5946C46.6544 48.4247 48.1067 47.3351 49.5587 46.2457C51.5177 44.7761 53.4761 43.3068 55.2658 41.6411L58.1647 38.943C59.2699 37.9144 60.4629 36.9874 61.7291 36.1723Z" fill="#E4CAFF"/>
</svg>
