<svg width="134" height="127" viewBox="0 0 134 127" fill="none" xmlns="http://www.w3.org/2000/svg">
<path fill-rule="evenodd" clip-rule="evenodd" d="M102.404 8.30538C101.621 7.51484 100.344 7.51482 99.5614 8.30534L15.8596 92.8487C15.088 93.6281 15.0879 94.8834 15.8595 95.6628L31.592 111.556C32.3746 112.347 33.6519 112.347 34.4346 111.557L43.5538 102.347L38.5931 97.3362L40.7174 95.1907L45.6782 100.201L48.4222 97.4298L47.0715 96.0656L49.1957 93.92L50.5465 95.2843L53.6174 92.1829L48.6564 87.1721L50.7806 85.0265L55.7417 90.0373L58.4856 87.2659L57.1347 85.9014L59.259 83.7559L60.6099 85.1203L63.3538 82.3489L58.3928 77.3381L60.517 75.1925L65.4781 80.2033L68.222 77.4319L66.8711 76.0675L68.9954 73.9233L70.3463 75.2877L73.0902 72.5162L68.1265 67.5068L70.2507 65.3613L75.2118 70.372L77.9571 67.6006L76.6075 66.2362L78.7304 64.0906L80.0813 65.455L82.8239 62.685L77.8629 57.6742L79.9871 55.5286L84.9482 60.5394L87.6921 57.768L86.3412 56.4035L88.4655 54.258L89.8164 55.6224L92.5603 52.851L87.5979 47.8429L89.7222 45.6973L94.6833 50.7095L97.4285 47.938L96.0776 46.5722L98.2006 44.4267L99.5515 45.7911L102.295 43.0197L97.3343 38.0089L99.4586 35.8634L104.42 40.8755L107.162 38.1027L105.811 36.7383L107.936 34.594L109.287 35.9571L112.03 33.1857L107.069 28.1749L109.192 26.028L114.153 31.0415L118.14 27.0147C118.912 26.2353 118.912 24.9799 118.14 24.2005L102.404 8.30538ZM21.8885 90.8452C23.6597 89.0554 26.5443 89.0545 28.3154 90.8452C30.0884 92.635 30.0884 95.5484 28.3154 97.3373C26.5443 99.1279 23.6597 99.127 21.8885 97.3373C20.1156 95.5475 20.1156 92.6359 21.8885 90.8452ZM23.5835 92.5571C22.744 93.4041 22.744 94.7775 23.5835 95.6254C24.4212 96.4724 25.7828 96.4724 26.6205 95.6254C27.46 94.7775 27.46 93.4041 26.6205 92.5571C25.781 91.7092 24.4212 91.7101 23.5835 92.5571Z" fill="#E4CAFF"/>
<path d="M99.5614 8.30534L99.4833 8.22794L99.4833 8.22795L99.5614 8.30534ZM102.404 8.30538L102.326 8.38277L102.326 8.38277L102.404 8.30538ZM15.8596 92.8487L15.7814 92.7713L15.7814 92.7713L15.8596 92.8487ZM15.8595 95.6628L15.7813 95.7402L15.7813 95.7402L15.8595 95.6628ZM31.592 111.556L31.6702 111.479L31.6702 111.479L31.592 111.556ZM34.4346 111.557L34.5128 111.634L34.5128 111.634L34.4346 111.557ZM43.5538 102.347L43.632 102.424L43.7086 102.347L43.632 102.269L43.5538 102.347ZM38.5931 97.3362L38.5149 97.2588L38.4383 97.3362L38.5149 97.4136L38.5931 97.3362ZM40.7174 95.1907L40.7955 95.1133L40.7174 95.0343L40.6392 95.1133L40.7174 95.1907ZM45.6782 100.201L45.6 100.279L45.6782 100.358L45.7563 100.279L45.6782 100.201ZM48.4222 97.4298L48.5003 97.5072L48.577 97.4298L48.5004 97.3524L48.4222 97.4298ZM47.0715 96.0656L46.9933 95.9882L46.9167 96.0656L46.9933 96.143L47.0715 96.0656ZM49.1957 93.92L49.2739 93.8426L49.1957 93.7637L49.1176 93.8426L49.1957 93.92ZM50.5465 95.2843L50.4683 95.3617L50.5465 95.4407L50.6247 95.3617L50.5465 95.2843ZM53.6174 92.1829L53.6956 92.2603L53.7722 92.1829L53.6956 92.1055L53.6174 92.1829ZM48.6564 87.1721L48.5782 87.0947L48.5016 87.1721L48.5782 87.2495L48.6564 87.1721ZM50.7806 85.0265L50.8588 84.9491L50.7806 84.8702L50.7024 84.9491L50.7806 85.0265ZM55.7417 90.0373L55.6635 90.1147L55.7417 90.1937L55.8198 90.1147L55.7417 90.0373ZM58.4856 87.2659L58.5638 87.3433L58.6404 87.2659L58.5638 87.1885L58.4856 87.2659ZM57.1347 85.9014L57.0566 85.824L56.9799 85.9014L57.0566 85.9788L57.1347 85.9014ZM59.259 83.7559L59.3371 83.6785L59.259 83.5995L59.1808 83.6785L59.259 83.7559ZM60.6099 85.1203L60.5317 85.1977L60.6099 85.2767L60.688 85.1977L60.6099 85.1203ZM63.3538 82.3489L63.432 82.4263L63.5086 82.3489L63.432 82.2715L63.3538 82.3489ZM58.3928 77.3381L58.3146 77.2607L58.238 77.3381L58.3146 77.4155L58.3928 77.3381ZM60.517 75.1925L60.5952 75.1152L60.517 75.0362L60.4388 75.1152L60.517 75.1925ZM65.4781 80.2033L65.3999 80.2807L65.4781 80.3597L65.5562 80.2807L65.4781 80.2033ZM68.222 77.4319L68.3002 77.5093L68.3768 77.4319L68.3002 77.3545L68.222 77.4319ZM66.8711 76.0675L66.793 75.99L66.7163 76.0674L66.793 76.1449L66.8711 76.0675ZM68.9954 73.9233L69.0735 73.8459L68.9954 73.7669L68.9172 73.8458L68.9954 73.9233ZM70.3463 75.2877L70.2681 75.3651L70.3463 75.444L70.4244 75.3651L70.3463 75.2877ZM73.0902 72.5162L73.1684 72.5936L73.245 72.5162L73.1683 72.4388L73.0902 72.5162ZM68.1265 67.5068L68.0483 67.4294L67.9717 67.5068L68.0483 67.5842L68.1265 67.5068ZM70.2507 65.3613L70.3289 65.2839L70.2507 65.2049L70.1726 65.2839L70.2507 65.3613ZM75.2118 70.372L75.1336 70.4494L75.2118 70.5284L75.2899 70.4495L75.2118 70.372ZM77.9571 67.6006L78.0352 67.678L78.1118 67.6007L78.0353 67.5232L77.9571 67.6006ZM76.6075 66.2362L76.5293 66.1588L76.4528 66.2362L76.5293 66.3135L76.6075 66.2362ZM78.7304 64.0906L78.8086 64.0132L78.7304 63.9343L78.6522 64.0133L78.7304 64.0906ZM80.0813 65.455L80.0032 65.5324L80.0813 65.6114L80.1595 65.5324L80.0813 65.455ZM82.8239 62.685L82.9021 62.7623L82.9787 62.685L82.9021 62.6076L82.8239 62.685ZM77.8629 57.6742L77.7847 57.5968L77.7081 57.6742L77.7847 57.7516L77.8629 57.6742ZM79.9871 55.5286L80.0653 55.4512L79.9871 55.3723L79.909 55.4512L79.9871 55.5286ZM84.9482 60.5394L84.87 60.6168L84.9482 60.6957L85.0264 60.6168L84.9482 60.5394ZM87.6921 57.768L87.7703 57.8454L87.8469 57.768L87.7703 57.6906L87.6921 57.768ZM86.3412 56.4035L86.2631 56.3261L86.1865 56.4035L86.2631 56.4809L86.3412 56.4035ZM88.4655 54.258L88.5437 54.1806L88.4655 54.1016L88.3873 54.1806L88.4655 54.258ZM89.8164 55.6224L89.7382 55.6998L89.8164 55.7788L89.8946 55.6998L89.8164 55.6224ZM92.5603 52.851L92.6385 52.9284L92.7152 52.8509L92.6385 52.7735L92.5603 52.851ZM87.5979 47.8429L87.5198 47.7655L87.4431 47.8429L87.5198 47.9203L87.5979 47.8429ZM89.7222 45.6973L89.8004 45.62L89.7222 45.541L89.644 45.6199L89.7222 45.6973ZM94.6833 50.7095L94.6051 50.7868L94.6832 50.8658L94.7614 50.7869L94.6833 50.7095ZM97.4285 47.938L97.5067 48.0154L97.5833 47.9381L97.5067 47.8607L97.4285 47.938ZM96.0776 46.5722L95.9995 46.4949L95.9229 46.5722L95.9994 46.6496L96.0776 46.5722ZM98.2006 44.4267L98.2787 44.3493L98.2005 44.2703L98.1224 44.3493L98.2006 44.4267ZM99.5515 45.7911L99.4733 45.8685L99.5515 45.9475L99.6296 45.8685L99.5515 45.7911ZM102.295 43.0197L102.374 43.0971L102.45 43.0197L102.374 42.9423L102.295 43.0197ZM97.3343 38.0089L97.2562 37.9315L97.1795 38.0089L97.2562 38.0863L97.3343 38.0089ZM99.4586 35.8634L99.5368 35.786L99.4586 35.707L99.3804 35.786L99.4586 35.8634ZM104.42 40.8755L104.341 40.9529L104.42 41.0319L104.498 40.9528L104.42 40.8755ZM107.162 38.1027L107.24 38.18L107.317 38.1026L107.24 38.0253L107.162 38.1027ZM105.811 36.7383L105.733 36.6609L105.657 36.7382L105.733 36.8157L105.811 36.7383ZM107.936 34.594L108.014 34.5166L107.936 34.4378L107.857 34.5166L107.936 34.594ZM109.287 35.9571L109.208 36.0346L109.287 36.1134L109.365 36.0345L109.287 35.9571ZM112.03 33.1857L112.109 33.2631L112.185 33.1857L112.109 33.1083L112.03 33.1857ZM107.069 28.1749L106.991 28.0976L106.915 28.175L106.991 28.2523L107.069 28.1749ZM109.192 26.028L109.271 25.9506L109.192 25.8716L109.114 25.9507L109.192 26.028ZM114.153 31.0415L114.075 31.1189L114.153 31.1979L114.232 31.1189L114.153 31.0415ZM118.14 27.0147L118.062 26.9373L118.062 26.9373L118.14 27.0147ZM118.14 24.2005L118.218 24.1231L118.218 24.1231L118.14 24.2005ZM28.3154 90.8452L28.2372 90.9226L28.2373 90.9226L28.3154 90.8452ZM21.8885 90.8452L21.9667 90.9226L21.9667 90.9226L21.8885 90.8452ZM28.3154 97.3373L28.2373 97.2598L28.2372 97.2599L28.3154 97.3373ZM21.8885 97.3373L21.9667 97.2599L21.9667 97.2598L21.8885 97.3373ZM23.5835 95.6254L23.6617 95.548L23.6616 95.548L23.5835 95.6254ZM23.5835 92.5571L23.6616 92.6345L23.6617 92.6344L23.5835 92.5571ZM26.6205 95.6254L26.5423 95.548L26.5423 95.548L26.6205 95.6254ZM26.6205 92.5571L26.5423 92.6345L26.5424 92.6345L26.6205 92.5571ZM99.6396 8.38273C100.379 7.63569 101.586 7.63571 102.326 8.38277L102.482 8.22799C101.656 7.39397 100.309 7.39395 99.4833 8.22794L99.6396 8.38273ZM15.9378 92.9261L99.6396 8.38273L99.4833 8.22795L15.7814 92.7713L15.9378 92.9261ZM15.9376 95.5855C15.2086 94.8489 15.2086 93.6626 15.9378 92.9261L15.7814 92.7713C14.9674 93.5935 14.9673 94.9179 15.7813 95.7402L15.9376 95.5855ZM31.6702 111.479L15.9376 95.5855L15.7813 95.7402L31.5138 111.634L31.6702 111.479ZM34.3564 111.479C33.6168 112.226 32.4097 112.226 31.6702 111.479L31.5138 111.634C32.3394 112.468 33.687 112.468 34.5128 111.634L34.3564 111.479ZM43.4757 102.269L34.3564 111.479L34.5128 111.634L43.632 102.424L43.4757 102.269ZM38.5149 97.4136L43.4757 102.424L43.632 102.269L38.6713 97.2588L38.5149 97.4136ZM40.6392 95.1133L38.5149 97.2588L38.6713 97.4136L40.7955 95.268L40.6392 95.1133ZM45.7563 100.124L40.7955 95.1133L40.6392 95.268L45.6 100.279L45.7563 100.124ZM48.344 97.3524L45.6 100.124L45.7563 100.279L48.5003 97.5072L48.344 97.3524ZM46.9933 96.143L48.344 97.5072L48.5004 97.3524L47.1496 95.9882L46.9933 96.143ZM49.1176 93.8426L46.9933 95.9882L47.1496 96.143L49.2739 93.9974L49.1176 93.8426ZM50.6247 95.2069L49.2739 93.8426L49.1176 93.9974L50.4683 95.3617L50.6247 95.2069ZM53.5393 92.1055L50.4683 95.2069L50.6247 95.3617L53.6956 92.2603L53.5393 92.1055ZM48.5782 87.2495L53.5392 92.2603L53.6956 92.1055L48.7345 87.0947L48.5782 87.2495ZM50.7024 84.9491L48.5782 87.0947L48.7345 87.2495L50.8588 85.1039L50.7024 84.9491ZM55.8198 89.9599L50.8588 84.9491L50.7024 85.1039L55.6635 90.1147L55.8198 89.9599ZM58.4074 87.1885L55.6635 89.9599L55.8198 90.1147L58.5638 87.3433L58.4074 87.1885ZM57.0566 85.9788L58.4074 87.3433L58.5638 87.1885L57.2129 85.824L57.0566 85.9788ZM59.1808 83.6785L57.0566 85.824L57.2129 85.9788L59.3371 83.8333L59.1808 83.6785ZM60.688 85.0429L59.3371 83.6785L59.1808 83.8333L60.5317 85.1977L60.688 85.0429ZM63.2756 82.2715L60.5317 85.0429L60.688 85.1977L63.432 82.4263L63.2756 82.2715ZM58.3146 77.4155L63.2756 82.4263L63.432 82.2715L58.4709 77.2607L58.3146 77.4155ZM60.4388 75.1152L58.3146 77.2607L58.4709 77.4155L60.5952 75.2699L60.4388 75.1152ZM65.5562 80.1259L60.5952 75.1152L60.4388 75.2699L65.3999 80.2807L65.5562 80.1259ZM68.1438 77.3545L65.3999 80.1259L65.5562 80.2807L68.3002 77.5093L68.1438 77.3545ZM66.793 76.1449L68.1438 77.5093L68.3002 77.3545L66.9493 75.9901L66.793 76.1449ZM68.9172 73.8458L66.793 75.99L66.9493 76.1449L69.0735 74.0007L68.9172 73.8458ZM70.4244 75.2103L69.0735 73.8459L68.9172 74.0006L70.2681 75.3651L70.4244 75.2103ZM73.012 72.4388L70.2681 75.2103L70.4244 75.3651L73.1684 72.5936L73.012 72.4388ZM68.0483 67.5842L73.0121 72.5937L73.1683 72.4388L68.2046 67.4294L68.0483 67.5842ZM70.1726 65.2839L68.0483 67.4294L68.2047 67.5842L70.3289 65.4387L70.1726 65.2839ZM75.29 70.2946L70.3289 65.2839L70.1726 65.4387L75.1336 70.4494L75.29 70.2946ZM77.8789 67.5232L75.1336 70.2946L75.2899 70.4495L78.0352 67.678L77.8789 67.5232ZM76.5293 66.3135L77.8789 67.678L78.0353 67.5232L76.6857 66.1588L76.5293 66.3135ZM78.6522 64.0133L76.5293 66.1588L76.6857 66.3135L78.8086 64.168L78.6522 64.0133ZM80.1595 65.3777L78.8086 64.0132L78.6523 64.168L80.0032 65.5324L80.1595 65.3777ZM82.7458 62.6076L80.0032 65.3777L80.1595 65.5324L82.9021 62.7623L82.7458 62.6076ZM77.7847 57.7516L82.7458 62.7623L82.9021 62.6076L77.941 57.5968L77.7847 57.7516ZM79.909 55.4512L77.7847 57.5968L77.941 57.7516L80.0653 55.606L79.909 55.4512ZM85.0264 60.462L80.0653 55.4512L79.909 55.606L84.87 60.6168L85.0264 60.462ZM87.614 57.6906L84.87 60.462L85.0264 60.6168L87.7703 57.8454L87.614 57.6906ZM86.2631 56.4809L87.614 57.8454L87.7703 57.6906L86.4194 56.3261L86.2631 56.4809ZM88.3873 54.1806L86.2631 56.3261L86.4194 56.4809L88.5437 54.3354L88.3873 54.1806ZM89.8946 55.545L88.5437 54.1806L88.3873 54.3354L89.7382 55.6998L89.8946 55.545ZM92.4822 52.7736L89.7382 55.545L89.8946 55.6998L92.6385 52.9284L92.4822 52.7736ZM87.5198 47.9203L92.4822 52.9284L92.6385 52.7735L87.6761 47.7654L87.5198 47.9203ZM89.644 45.6199L87.5198 47.7655L87.6761 47.9203L89.8004 45.7747L89.644 45.6199ZM94.7614 50.6321L89.8004 45.62L89.644 45.7747L94.6051 50.7868L94.7614 50.6321ZM97.3504 47.8606L94.6051 50.632L94.7614 50.7869L97.5067 48.0154L97.3504 47.8606ZM95.9994 46.6496L97.3503 48.0154L97.5067 47.8607L96.1559 46.4949L95.9994 46.6496ZM98.1224 44.3493L95.9995 46.4949L96.1558 46.6496L98.2788 44.5041L98.1224 44.3493ZM99.6296 45.7137L98.2787 44.3493L98.1224 44.5041L99.4733 45.8685L99.6296 45.7137ZM102.217 42.9423L99.4733 45.7137L99.6296 45.8685L102.374 43.0971L102.217 42.9423ZM97.2562 38.0863L102.217 43.0971L102.374 42.9423L97.4125 37.9315L97.2562 38.0863ZM99.3804 35.786L97.2562 37.9315L97.4125 38.0863L99.5368 35.9407L99.3804 35.786ZM104.498 40.7981L99.5368 35.786L99.3804 35.9407L104.341 40.9529L104.498 40.7981ZM107.084 38.0253L104.341 40.7981L104.498 40.9528L107.24 38.18L107.084 38.0253ZM105.733 36.8157L107.084 38.1801L107.24 38.0253L105.89 36.6609L105.733 36.8157ZM107.857 34.5166L105.733 36.6609L105.89 36.8157L108.014 34.6715L107.857 34.5166ZM109.365 35.8797L108.014 34.5166L107.857 34.6715L109.208 36.0346L109.365 35.8797ZM111.952 33.1083L109.208 35.8797L109.365 36.0345L112.109 33.2631L111.952 33.1083ZM106.991 28.2523L111.952 33.2631L112.109 33.1083L107.148 28.0975L106.991 28.2523ZM109.114 25.9507L106.991 28.0976L107.148 28.2523L109.271 26.1054L109.114 25.9507ZM114.232 30.9641L109.271 25.9506L109.114 26.1054L114.075 31.1189L114.232 30.9641ZM118.062 26.9373L114.075 30.9641L114.232 31.1189L118.218 27.0921L118.062 26.9373ZM118.062 24.2779C118.791 25.0144 118.791 26.2008 118.062 26.9373L118.218 27.0921C119.032 26.2699 119.032 24.9454 118.218 24.1231L118.062 24.2779ZM102.326 8.38277L118.062 24.2779L118.218 24.1231L102.482 8.22799L102.326 8.38277ZM28.3936 90.7679C26.5794 88.9336 23.6245 88.9346 21.8103 90.7678L21.9667 90.9226C23.6949 89.1763 26.5091 89.1755 28.2372 90.9226L28.3936 90.7679ZM28.3936 97.4147C30.209 95.5829 30.209 92.6004 28.3936 90.7678L28.2373 90.9226C29.9678 92.6695 29.9677 95.5138 28.2373 97.2598L28.3936 97.4147ZM21.8103 97.4146C23.6245 99.2479 26.5794 99.2488 28.3936 97.4146L28.2372 97.2599C26.5091 99.007 23.6949 99.0062 21.9667 97.2599L21.8103 97.4146ZM21.8104 90.7678C19.995 92.6013 19.995 95.582 21.8104 97.4147L21.9667 97.2598C20.2362 95.513 20.2362 92.6704 21.9667 90.9226L21.8104 90.7678ZM23.6616 95.548C22.8646 94.743 22.8646 93.4386 23.6616 92.6345L23.5053 92.4797C22.6233 93.3695 22.6234 94.8121 23.5053 95.7028L23.6616 95.548ZM26.5423 95.548C25.7476 96.3515 24.4563 96.3515 23.6617 95.548L23.5053 95.7027C24.386 96.5933 25.8179 96.5933 26.6987 95.7027L26.5423 95.548ZM26.5424 92.6345C27.3393 93.4386 27.3394 94.743 26.5423 95.548L26.6987 95.7028C27.5806 94.8121 27.5806 93.3695 26.6986 92.4797L26.5424 92.6345ZM23.6617 92.6344C24.4563 91.831 25.7459 91.8301 26.5423 92.6345L26.6987 92.4797C25.8161 91.5883 24.386 91.5892 23.5053 92.4797L23.6617 92.6344ZM48.3442 97.3526L45.6002 100.124L45.7566 100.279L48.5005 97.5074L48.3442 97.3526Z" fill="#E4CAFF"/>
</svg>
