<svg width="140" height="111" viewBox="0 0 140 111" fill="none" xmlns="http://www.w3.org/2000/svg">
<g clip-path="url(#clip0_437_22)">
<rect y="32.5247" width="63.36" height="89.64" rx="2.4" transform="rotate(-30 0 32.5247)" fill="#34087C"/>
<rect x="-7.62939e-06" y="32.5247" width="63.6" height="90" transform="rotate(-30 -7.62939e-06 32.5247)" fill="#E4CAFF"/>
<path d="M3.07373 33.3483L54.0478 3.91846L96.6176 77.6516L45.6436 107.082L3.07373 33.3483Z" stroke="#A082DD" stroke-width="0.180258"/>
<path d="M10.1989 34.1698L10.9358 34.8672L10.8523 35.3013L10.4345 35.1566L10.1989 34.1698Z" fill="#A082DD"/>
<path d="M11.7205 36.8051L11.4849 35.8183L11.0671 35.6735L10.9836 36.1077L11.7205 36.8051Z" fill="#A082DD"/>
<path d="M12.2771 34.7276L11.5797 35.4645L11.1455 35.381L11.2903 34.9632L12.2771 34.7276Z" fill="#A082DD"/>
<path d="M9.64308 36.2484L10.6299 36.0129L10.7747 35.5951L10.3405 35.5116L9.64308 36.2484Z" fill="#A082DD"/>
<path d="M9.27902 35.0334L9.79783 35.058L10.2404 35.292L9.7401 35.2734L9.27849 35.0353L9.27902 35.0334Z" fill="#A082DD"/>
<path d="M11.4156 33.7998L11.391 34.3186L11.157 34.7612L11.1755 34.2609L11.4136 33.7993L11.4156 33.7998Z" fill="#A082DD"/>
<path d="M10.5198 37.1825L10.7579 36.7209L10.7765 36.2206L10.5425 36.6632L10.5179 37.182L10.5198 37.1825Z" fill="#A082DD"/>
<path d="M12.6564 35.9489L12.1948 35.7109L11.6945 35.6923L12.1371 35.9263L12.6559 35.9509L12.6564 35.9489Z" fill="#A082DD"/>
<path d="M46.8969 97.7325L47.6337 98.4299L47.5502 98.8641L47.1324 98.7193L46.8969 97.7325Z" fill="#A082DD"/>
<path d="M48.4184 100.368L48.1828 99.381L47.7651 99.2363L47.6816 99.6704L48.4184 100.368Z" fill="#A082DD"/>
<path d="M48.9751 98.2904L48.2777 99.0272L47.8435 98.9437L47.9883 98.5259L48.9751 98.2904Z" fill="#A082DD"/>
<path d="M46.341 99.8111L47.3278 99.5756L47.4726 99.1578L47.0384 99.0743L46.341 99.8111Z" fill="#A082DD"/>
<path d="M45.9769 98.5961L46.4958 98.6207L46.9383 98.8547L46.438 98.8361L45.9764 98.5981L45.9769 98.5961Z" fill="#A082DD"/>
<path d="M48.1136 97.3625L48.0889 97.8813L47.8549 98.3239L47.8735 97.8236L48.1116 97.362L48.1136 97.3625Z" fill="#A082DD"/>
<path d="M47.2178 100.745L47.4559 100.284L47.4744 99.7833L47.2404 100.226L47.2158 100.745L47.2178 100.745Z" fill="#A082DD"/>
<path d="M49.3544 99.5117L48.8928 99.2736L48.3925 99.255L48.835 99.489L49.3538 99.5136L49.3544 99.5117Z" fill="#A082DD"/>
<path d="M51.2554 10.4658L51.9922 11.1632L51.9087 11.5974L51.491 11.4526L51.2554 10.4658Z" fill="#A082DD"/>
<path d="M52.7769 13.1012L52.5414 12.1144L52.1236 11.9696L52.0401 12.4038L52.7769 13.1012Z" fill="#A082DD"/>
<path d="M53.3336 11.0237L52.6362 11.7605L52.202 11.6771L52.3468 11.2593L53.3336 11.0237Z" fill="#A082DD"/>
<path d="M50.6995 12.5445L51.6863 12.3089L51.8311 11.8912L51.3969 11.8077L50.6995 12.5445Z" fill="#A082DD"/>
<path d="M50.3355 11.3294L50.8543 11.3541L51.2968 11.5881L50.7965 11.5695L50.3349 11.3314L50.3355 11.3294Z" fill="#A082DD"/>
<path d="M52.4721 10.0959L52.4474 10.6147L52.2134 11.0573L52.232 10.557L52.4701 10.0954L52.4721 10.0959Z" fill="#A082DD"/>
<path d="M51.5763 13.4786L51.8144 13.017L51.833 12.5167L51.5989 12.9593L51.5743 13.4781L51.5763 13.4786Z" fill="#A082DD"/>
<path d="M53.7129 12.245L53.2513 12.0069L52.751 11.9883L53.1935 12.2224L53.7123 12.247L53.7129 12.245Z" fill="#A082DD"/>
<path d="M87.9533 74.0285L88.6901 74.7259L88.6066 75.1601L88.1889 75.0153L87.9533 74.0285Z" fill="#A082DD"/>
<path d="M89.4748 76.6639L89.2393 75.677L88.8215 75.5323L88.738 75.9664L89.4748 76.6639Z" fill="#A082DD"/>
<path d="M90.0315 74.5864L89.3341 75.3232L88.8999 75.2397L89.0447 74.822L90.0315 74.5864Z" fill="#A082DD"/>
<path d="M87.3975 76.1072L88.3843 75.8716L88.529 75.4538L88.0949 75.3703L87.3975 76.1072Z" fill="#A082DD"/>
<path d="M87.0334 74.8921L87.5522 74.9167L87.9948 75.1508L87.4945 75.1322L87.0329 74.8941L87.0334 74.8921Z" fill="#A082DD"/>
<path d="M89.17 73.6586L89.1454 74.1774L88.9113 74.62L88.9299 74.1197L89.168 73.6581L89.17 73.6586Z" fill="#A082DD"/>
<path d="M88.2742 77.0413L88.5123 76.5797L88.5309 76.0794L88.2968 76.5219L88.2722 77.0407L88.2742 77.0413Z" fill="#A082DD"/>
<path d="M90.4108 75.8077L89.9492 75.5696L89.4489 75.551L89.8915 75.7851L90.4103 75.8097L90.4108 75.8077Z" fill="#A082DD"/>
<path d="M24.7122 70.2179L25.2978 69.5993L25.6623 69.6694L25.5407 70.0201L24.7122 70.2179Z" fill="#A082DD"/>
<path d="M26.9248 68.9405L26.0963 69.1382L25.9748 69.489L26.3393 69.5591L26.9248 68.9405Z" fill="#A082DD"/>
<path d="M25.1806 68.4732L25.7993 69.0587L25.7292 69.4232L25.3784 69.3016L25.1806 68.4732Z" fill="#A082DD"/>
<path d="M26.4574 70.6846L26.2597 69.8561L25.9089 69.7346L25.8388 70.0991L26.4574 70.6846Z" fill="#A082DD"/>
<path d="M72.9459 42.3701L73.5315 41.7515L73.896 41.8216L73.7744 42.1724L72.9459 42.3701Z" fill="#A082DD"/>
<path d="M75.1585 41.0927L74.33 41.2905L74.2084 41.6412L74.573 41.7113L75.1585 41.0927Z" fill="#A082DD"/>
<path d="M73.4143 40.6254L74.0329 41.2109L73.9628 41.5754L73.6121 41.4539L73.4143 40.6254Z" fill="#A082DD"/>
<path d="M74.6911 42.8369L74.4934 42.0084L74.1426 41.8868L74.0725 42.2513L74.6911 42.8369Z" fill="#A082DD"/>
<path d="M3.1584 33.3965L6.03472 31.7359C4.9712 33.0404 4.563 34.7598 4.92667 36.4032L4.94679 36.4941L3.1584 33.3965Z" fill="#A082DD"/>
<path d="M54.0472 4.01587L51.1708 5.67651C52.8324 5.40774 54.5255 5.91394 55.7669 7.05057L55.8356 7.11345L54.0472 4.01587Z" fill="#A082DD"/>
<path d="M45.7313 107.135L48.6076 105.474C46.9461 105.743 45.2529 105.237 44.0116 104.1L43.9429 104.037L45.7313 107.135Z" fill="#A082DD"/>
<path d="M96.6201 77.7543L93.7437 79.4149C94.8073 78.1104 95.2155 76.391 94.8518 74.7476L94.8317 74.6567L96.6201 77.7543Z" fill="#A082DD"/>
</g>
<g clip-path="url(#clip1_437_22)">
<rect x="84.82" y="0.844727" width="63.36" height="89.64" rx="2.4" transform="rotate(30 84.82 0.844727)" fill="#34087C"/>
<rect x="84.82" y="0.844727" width="63.6" height="90" transform="rotate(30 84.82 0.844727)" fill="#E4CAFF"/>
<path d="M85.6436 3.91847L136.618 33.3483L94.0478 107.082L43.0737 77.6516L85.6436 3.91847Z" stroke="#A082DD" stroke-width="0.180258"/>
<path d="M88.4948 10.4998L88.2593 11.4866L87.8415 11.6314L87.758 11.1972L88.4948 10.4998Z" fill="#A082DD"/>
<path d="M86.9733 13.1351L87.7101 12.4377L87.6266 12.0036L87.2089 12.1483L86.9733 13.1351Z" fill="#A082DD"/>
<path d="M89.0508 12.5785L88.0639 12.3429L87.9192 11.9252L88.3534 11.8417L89.0508 12.5785Z" fill="#A082DD"/>
<path d="M86.4167 11.0577L87.1141 11.7945L87.5483 11.711L87.4035 11.2933L86.4167 11.0577Z" fill="#A082DD"/>
<path d="M87.2869 10.1349L87.525 10.5965L87.5436 11.0968L87.3096 10.6542L87.285 10.1354L87.2869 10.1349Z" fill="#A082DD"/>
<path d="M89.4235 11.3685L88.9619 11.6066L88.4616 11.6252L88.9042 11.3911L89.423 11.3665L89.4235 11.3685Z" fill="#A082DD"/>
<path d="M86.0461 12.2841L86.5649 12.2595L87.0075 12.0254L86.5072 12.044L86.0456 12.2821L86.0461 12.2841Z" fill="#A082DD"/>
<path d="M88.1827 13.5176L88.1581 12.9988L87.9241 12.5562L87.9427 13.0565L88.1808 13.5181L88.1827 13.5176Z" fill="#A082DD"/>
<path d="M51.7969 74.0625L51.5613 75.0493L51.1436 75.1941L51.0601 74.7599L51.7969 74.0625Z" fill="#A082DD"/>
<path d="M50.2754 76.6979L51.0122 76.0004L50.9287 75.5663L50.5109 75.711L50.2754 76.6979Z" fill="#A082DD"/>
<path d="M52.3528 76.1412L51.366 75.9057L51.2213 75.4879L51.6554 75.4044L52.3528 76.1412Z" fill="#A082DD"/>
<path d="M49.7188 74.6204L50.4162 75.3573L50.8504 75.2738L50.7056 74.856L49.7188 74.6204Z" fill="#A082DD"/>
<path d="M50.589 73.6976L50.8271 74.1592L50.8457 74.6595L50.6117 74.217L50.587 73.6982L50.589 73.6976Z" fill="#A082DD"/>
<path d="M52.7256 74.9312L52.264 75.1693L51.7637 75.1879L52.2063 74.9538L52.7251 74.9292L52.7256 74.9312Z" fill="#A082DD"/>
<path d="M49.3482 75.8468L49.867 75.8222L50.3096 75.5881L49.8093 75.6067L49.3477 75.8448L49.3482 75.8468Z" fill="#A082DD"/>
<path d="M51.4848 77.0803L51.4602 76.5615L51.2262 76.119L51.2447 76.6193L51.4828 77.0809L51.4848 77.0803Z" fill="#A082DD"/>
<path d="M129.551 34.2038L129.316 35.1906L128.898 35.3353L128.814 34.9012L129.551 34.2038Z" fill="#A082DD"/>
<path d="M128.03 36.8391L128.767 36.1417L128.683 35.7075L128.265 35.8523L128.03 36.8391Z" fill="#A082DD"/>
<path d="M130.107 36.2825L129.12 36.0469L128.976 35.6291L129.41 35.5456L130.107 36.2825Z" fill="#A082DD"/>
<path d="M127.473 34.7617L128.171 35.4985L128.605 35.415L128.46 34.9973L127.473 34.7617Z" fill="#A082DD"/>
<path d="M128.343 33.8389L128.581 34.3005L128.6 34.8008L128.366 34.3582L128.341 33.8394L128.343 33.8389Z" fill="#A082DD"/>
<path d="M130.48 35.0724L130.018 35.3105L129.518 35.3291L129.961 35.0951L130.479 35.0705L130.48 35.0724Z" fill="#A082DD"/>
<path d="M127.103 35.988L127.621 35.9634L128.064 35.7294L127.564 35.748L127.102 35.986L127.103 35.988Z" fill="#A082DD"/>
<path d="M129.239 37.2216L129.215 36.7028L128.981 36.2602L128.999 36.7605L129.237 37.2221L129.239 37.2216Z" fill="#A082DD"/>
<path d="M92.8533 97.7664L92.6178 98.7532L92.2 98.898L92.1165 98.4638L92.8533 97.7664Z" fill="#A082DD"/>
<path d="M91.3318 100.402L92.0686 99.7044L91.9851 99.2702L91.5674 99.415L91.3318 100.402Z" fill="#A082DD"/>
<path d="M93.4093 99.8451L92.4225 99.6096L92.2777 99.1918L92.7119 99.1083L93.4093 99.8451Z" fill="#A082DD"/>
<path d="M90.7752 98.3244L91.4726 99.0612L91.9068 98.9777L91.762 98.56L90.7752 98.3244Z" fill="#A082DD"/>
<path d="M91.6455 97.4016L91.8836 97.8632L91.9021 98.3635L91.6681 97.9209L91.6435 97.4021L91.6455 97.4016Z" fill="#A082DD"/>
<path d="M93.782 98.6351L93.3204 98.8732L92.8201 98.8918L93.2627 98.6578L93.7815 98.6331L93.782 98.6351Z" fill="#A082DD"/>
<path d="M90.4047 99.5507L90.9235 99.5261L91.366 99.292L90.8657 99.3106L90.4041 99.5487L90.4047 99.5507Z" fill="#A082DD"/>
<path d="M92.5413 100.784L92.5166 100.265L92.2826 99.8229L92.3012 100.323L92.5393 100.785L92.5413 100.784Z" fill="#A082DD"/>
<path d="M64.5329 41.0927L65.3614 41.2905L65.4829 41.6412L65.1184 41.7114L64.5329 41.0927Z" fill="#A082DD"/>
<path d="M66.7454 42.3702L66.1599 41.7516L65.7954 41.8217L65.9169 42.1724L66.7454 42.3702Z" fill="#A082DD"/>
<path d="M66.2781 40.626L66.0803 41.4545L65.7296 41.576L65.6595 41.2115L66.2781 40.626Z" fill="#A082DD"/>
<path d="M65.0013 42.8375L65.6199 42.252L65.5498 41.8874L65.1991 42.009L65.0013 42.8375Z" fill="#A082DD"/>
<path d="M112.767 68.9405L113.595 69.1383L113.717 69.489L113.352 69.5591L112.767 68.9405Z" fill="#A082DD"/>
<path d="M114.979 70.2179L114.394 69.5993L114.029 69.6694L114.151 70.0201L114.979 70.2179Z" fill="#A082DD"/>
<path d="M114.512 68.4738L114.314 69.3022L113.963 69.4238L113.893 69.0593L114.512 68.4738Z" fill="#A082DD"/>
<path d="M113.235 70.6852L113.854 70.0997L113.783 69.7352L113.433 69.8567L113.235 70.6852Z" fill="#A082DD"/>
<path d="M85.6442 4.01587L88.5205 5.67651C86.859 5.40774 85.1659 5.91394 83.9245 7.05057L83.8558 7.11345L85.6442 4.01587Z" fill="#A082DD"/>
<path d="M136.533 33.3965L133.657 31.7359C134.72 33.0404 135.128 34.7598 134.765 36.4032L134.745 36.4941L136.533 33.3965Z" fill="#A082DD"/>
<path d="M43.0713 77.7543L45.9476 79.4149C44.8841 78.1104 44.4759 76.391 44.8396 74.7476L44.8597 74.6567L43.0713 77.7543Z" fill="#A082DD"/>
<path d="M93.9601 107.135L91.0838 105.474C92.7453 105.743 94.4384 105.237 95.6798 104.1L95.7485 104.037L93.9601 107.135Z" fill="#A082DD"/>
</g>
<defs>
<clipPath id="clip0_437_22">
<rect y="32.5247" width="63.36" height="89.64" rx="2.4" transform="rotate(-30 0 32.5247)" fill="white"/>
</clipPath>
<clipPath id="clip1_437_22">
<rect x="84.82" y="0.844727" width="63.36" height="89.64" rx="2.4" transform="rotate(30 84.82 0.844727)" fill="white"/>
</clipPath>
</defs>
</svg>
