<svg width="137" height="392" viewBox="0 0 137 392" fill="none" xmlns="http://www.w3.org/2000/svg">
<path fill-rule="evenodd" clip-rule="evenodd" d="M135.057 372.087C123.811 396.569 30.8187 407.318 25.3024 351.278C21.7616 315.328 22.0098 298.445 22.9368 290.203C25.3885 268.411 29.2991 247.496 38.103 229.27C42.5315 220.099 48.4029 211.719 53.9497 203.801C62.3548 191.805 70.0146 180.872 70.7806 169.862C71.3833 161.216 69.5225 157.63 66.5252 151.854L66.5251 151.854C64.9881 148.892 63.1523 145.355 61.1966 140.264C54.1303 146.869 46.1622 151.661 38.1384 151.033C15.5867 149.265 -2.40597 105.089 0.263554 68.6274C1.9757 45.2956 13.5149 6.49375 40.5901 0.719063C56.8005 -2.73867 71.0022 7.25209 74.4977 9.71114L74.5038 9.71542C98.3725 26.5228 100.996 59.7627 96.8782 80.582C95.8093 85.9717 94.2643 90.6826 92.4914 94.8668C90.5311 99.4966 90.5969 104.729 92.694 109.293C95.9385 116.367 100.678 124.843 104.815 132.243L104.815 132.243C107.887 137.736 110.626 142.636 112.176 145.927C122.191 167.202 124.835 188.766 123.072 229.807C122.046 253.716 120.142 269.873 118.672 282.342C116.319 302.311 115.08 312.823 120.347 330.575C123.901 342.551 128.177 350.279 131.364 356.037C135.158 362.893 137.408 366.959 135.057 372.082V372.087ZM28 74C28 84.4934 23.0751 93 17 93C10.9249 93 6 84.4934 6 74C6 63.5066 10.9249 55 17 55C23.0751 55 28 63.5066 28 74ZM52 103C58.0751 103 63 94.4934 63 84C63 73.5066 58.0751 65 52 65C45.9249 65 41 73.5066 41 84C41 94.4934 45.9249 103 52 103Z" fill="white"/>
</svg>
