<svg width="307" height="174" viewBox="0 0 307 174" fill="none" xmlns="http://www.w3.org/2000/svg">
<g clip-path="url(#clip0_1_116)">
<path d="M79.564 149.141L87.19 134.258C88.2978 132.123 87.2623 131.264 85.8013 131.264C80.0456 131.264 73.0377 144.156 68.1811 153.5H64.0872L73.1019 134.258C74.2097 132.123 73.1742 131.264 71.7132 131.264C65.9575 131.264 58.9496 144.156 54.093 153.5H49.1722L59.0219 134.258C60.2019 131.986 59.7845 131.264 58.8854 131.264C57.7054 131.264 56.9428 132.629 56.2524 134.033L55.0001 133.809C56.1802 131.264 57.8418 129.546 60.5471 129.546C63.461 129.546 65.1227 131.449 64.0149 134.178C66.7924 131.457 69.8428 129.546 73.1742 129.546C76.1604 129.546 79.275 131.224 78.095 134.13C80.8002 131.409 83.9229 129.546 87.182 129.546C90.4411 129.546 93.4273 131.272 92.1108 134.266L84.4848 149.149C83.3048 151.421 83.7222 152.143 84.6212 152.143C85.8013 152.143 86.5639 150.779 87.2542 149.374L88.5065 149.599C87.3265 152.143 85.6648 153.861 82.8873 153.861C79.9734 153.861 78.3117 151.911 79.556 149.141H79.564Z" fill="white"/>
<path d="M93.9249 142.599C96.4936 136.883 103.774 129.53 111.818 129.53C114.732 129.53 115.912 130.437 116.257 131.617L117.02 129.891H122.013L113.134 149.133C111.954 151.405 112.372 152.127 113.207 152.127C114.459 152.127 115.222 150.763 115.912 149.358L117.164 149.583C115.984 152.127 114.322 153.845 111.617 153.845C108.631 153.845 106.969 151.894 108.222 149.125L108.703 148.081C106.279 151.26 103.156 153.845 98.9259 153.845C92.2632 153.845 91.4364 147.993 93.9329 142.591L93.9249 142.599ZM100.933 151.365C106.062 151.365 111.128 142.47 113.07 138.569L114.042 136.345C114.876 133.985 113.969 131.304 110.574 131.304C105.789 131.304 101.069 136.747 99.3353 140.608C97.3205 144.967 96.5579 151.365 100.933 151.365Z" fill="white"/>
<path d="M121.322 150.136C121.322 148.138 122.639 147.592 124.164 147.592C125.97 147.592 126.733 148.547 126.733 149.494C126.733 150.586 125.761 152.175 128.186 152.175C131.1 152.175 133.179 150.45 134.078 148.499C136.92 142.374 123.12 141.555 127.142 134.114C128.595 131.433 131.509 129.53 135.884 129.53C140.877 129.53 142.747 132.075 142.747 133.255C142.747 135.254 141.431 135.8 139.906 135.8C138.1 135.8 137.337 134.844 137.337 133.897C137.337 132.805 138.517 131.216 136.085 131.216C133.243 131.216 131.365 132.621 130.674 134.258C128.041 139.885 141.776 140.608 138.445 148.282C136.574 152.641 132.344 153.861 128.314 153.861C122.486 153.861 121.306 151.316 121.306 150.136H121.322Z" fill="white"/>
<path d="M144.562 142.599C147.131 136.883 153.721 129.53 162.182 129.53C167.175 129.53 168.355 132.075 168.355 133.255C168.355 135.254 167.039 135.8 165.513 135.8C163.707 135.8 162.945 134.844 162.945 133.897C162.945 132.805 164.333 131.401 161.901 131.401C155.937 131.401 151.706 136.755 149.972 140.616C147.957 144.975 147.195 151.373 152.26 151.373C156.354 151.373 159.75 147.471 162.182 143.658L163.362 143.979C160.729 148.611 156.98 153.869 150.253 153.869C142.9 153.869 142.065 148.017 144.562 142.615V142.599Z" fill="white"/>
<path d="M167.175 142.599C169.744 136.883 177.024 129.53 185.068 129.53C187.982 129.53 189.162 130.437 189.507 131.617L190.27 129.891H195.263L186.384 149.133C185.204 151.405 185.622 152.127 186.457 152.127C187.709 152.127 188.472 150.763 189.162 149.358L190.414 149.583C189.234 152.127 187.572 153.845 184.867 153.845C181.881 153.845 180.219 151.894 181.472 149.125L181.953 148.081C179.529 151.26 176.406 153.845 172.176 153.845C165.513 153.845 164.686 147.993 167.183 142.591L167.175 142.599ZM174.175 151.365C179.304 151.365 184.37 142.47 186.312 138.569L187.284 136.345C188.118 133.985 187.211 131.304 183.816 131.304C179.031 131.304 174.311 136.747 172.577 140.608C170.562 144.967 169.8 151.365 174.175 151.365Z" fill="white"/>
<path d="M203.378 131.256C202.198 131.256 201.436 132.621 200.745 134.025L199.493 133.801C200.673 131.256 202.335 129.538 205.04 129.538C208.026 129.538 209.688 131.489 208.436 134.258L208.299 134.531C211.141 131.585 214.264 129.538 217.459 129.538C220.3 129.538 221.689 131.079 220.926 132.805C220.3 134.17 218.711 134.844 217.322 134.844C215.098 134.844 215.869 133.167 213.646 133.167C210.178 133.167 207.127 137.204 204.213 142.47L199.565 151.638L198.594 153.5H193.673L203.523 134.258C204.703 131.987 204.286 131.264 203.387 131.264L203.378 131.256Z" fill="white"/>
<path d="M218.639 142.599C221.207 136.883 228.488 129.53 236.532 129.53C239.446 129.53 240.626 130.437 240.971 131.617L241.734 129.891H246.727L237.848 149.133C236.668 151.405 237.086 152.127 237.921 152.127C239.173 152.127 239.935 150.763 240.626 149.358L241.878 149.583C240.698 152.127 239.036 153.845 236.331 153.845C233.345 153.845 231.683 151.894 232.936 149.125L233.417 148.081C230.993 151.26 227.87 153.845 223.64 153.845C216.977 153.845 216.15 147.993 218.647 142.591L218.639 142.599ZM225.647 151.365C230.776 151.365 235.841 142.47 237.784 138.569L238.755 136.345C239.59 133.985 238.683 131.304 235.288 131.304C230.503 131.304 225.783 136.747 224.049 140.608C222.034 144.967 221.272 151.365 225.647 151.365Z" fill="white"/>
<path d="M245.9 147.913C245.9 141.515 254.433 129.53 265.117 129.53C268.031 129.53 269.211 130.437 269.556 131.665L271.916 126.448C273.514 122.956 274.341 121.455 270.809 122.586L270.118 121.631L278.788 118.814H280.385L266.442 149.125C265.888 150.12 265.679 150.851 265.679 151.3C265.679 151.894 266.024 152.119 266.514 152.119C267.766 152.119 268.529 150.755 269.219 149.35L270.472 149.575C269.292 152.119 267.63 153.837 264.925 153.837C262.637 153.837 261.112 152.657 261.112 150.891C261.112 150.345 261.248 149.759 261.529 149.125L262.011 148.081C259.586 151.26 256.464 153.845 252.233 153.845C247.794 153.845 245.924 151.26 245.924 147.897L245.9 147.913ZM254.224 151.365C259.498 151.365 264.563 142.149 266.434 138.384C267.542 135.888 267.614 135.302 267.614 134.708C267.614 132.894 266.506 131.304 263.865 131.304C257.347 131.304 251.029 140.608 251.029 147.19C251.029 149.55 251.864 151.365 254.216 151.365H254.224Z" fill="white"/>
<path d="M274.614 147.776C274.614 141.419 282.729 129.53 293.478 129.53C297.781 129.53 299.787 131.433 299.787 133.704C299.787 136.337 297.01 140.327 281.268 140.6C279.671 144.052 278.073 151.357 283.556 151.357C287.65 151.357 291.744 147.455 293.478 143.642L294.658 143.963C292.715 148.595 288.276 153.853 281.549 153.853C276.556 153.853 274.614 151.172 274.614 147.768V147.776ZM295.148 133.801C295.148 132.805 294.313 131.392 291.889 131.392C287.73 131.392 283.845 135.751 281.83 139.428C287.795 139.107 295.148 136.61 295.148 133.801Z" fill="white"/>
<path d="M66.4953 57.6207L68.1007 63.0151L66.4953 64.8694L64.8898 63.0151L66.4953 57.6207Z" fill="white"/>
<path d="M66.4953 74.5023L68.1007 69.1079L66.4953 67.2535L64.8898 69.1079L66.4953 74.5023Z" fill="white"/>
<path d="M74.932 66.0655L69.5376 67.671L67.6832 66.0655L69.5376 64.46L74.932 66.0655Z" fill="white"/>
<path d="M58.0503 66.0655L63.4447 67.671L65.299 66.0655L63.4447 64.46L58.0503 66.0655Z" fill="white"/>
<path d="M59.68 59.2181L62.1043 60.7754L63.5813 63.1274L61.2293 61.6504L59.672 59.2261L59.68 59.2181Z" fill="white"/>
<path d="M73.3667 59.2181L71.8094 61.6424L69.4574 63.1194L70.9344 60.7674L73.3587 59.2101L73.3667 59.2181Z" fill="white"/>
<path d="M59.68 72.9851L62.1043 71.4278L63.5813 69.0757L61.2293 70.5528L59.672 72.9771L59.68 72.9851Z" fill="white"/>
<path d="M73.3667 72.9851L71.8094 70.5608L69.4574 69.0838L70.9344 71.4358L73.3587 72.9931L73.3667 72.9851Z" fill="white"/>
<path d="M158.064 57.6207L159.669 63.0151L158.064 64.8694L156.458 63.0151L158.064 57.6207Z" fill="white"/>
<path d="M158.064 74.5023L159.669 69.1079L158.064 67.2535L156.458 69.1079L158.064 74.5023Z" fill="white"/>
<path d="M166.501 66.0655L161.106 67.671L159.252 66.0655L161.106 64.46L166.501 66.0655Z" fill="white"/>
<path d="M149.627 66.0655L155.022 67.671L156.876 66.0655L155.022 64.46L149.627 66.0655Z" fill="white"/>
<path d="M151.249 59.2181L153.673 60.7754L155.15 63.1274L152.798 61.6504L151.24 59.2261L151.249 59.2181Z" fill="white"/>
<path d="M164.935 59.2181L163.378 61.6424L161.026 63.1194L162.503 60.7674L164.927 59.2101L164.935 59.2181Z" fill="white"/>
<path d="M151.249 72.9851L153.673 71.4278L155.15 69.0757L152.798 70.5528L151.24 72.9771L151.249 72.9851Z" fill="white"/>
<path d="M164.935 72.9851L163.378 70.5608L161.026 69.0838L162.503 71.4358L164.927 72.9931L164.935 72.9851Z" fill="white"/>
<path d="M237.021 80.4345L237.013 80.4833V80.4345H237.021Z" fill="white"/>
<path d="M237.021 108.772H237.013V108.723L237.021 108.772Z" fill="white"/>
<path d="M294.939 69.0758L292.499 96.9389L291.567 96.8586C291.656 95.9034 290.901 95.0846 289.946 95.0846H244.976C241.348 95.4378 238.434 98.3276 238.113 102.012L237.519 108.771H237.021V108.723L236.427 102.012C236.106 98.3276 233.184 95.4378 229.564 95.0846H169.728V94.1534H173.011C175.515 94.1534 177.37 91.8174 176.808 89.3771L171.453 66.1859L171.237 65.2547L158.064 8.19597L144.891 65.2547L144.674 66.1859L139.288 89.5135C138.742 91.8897 140.548 94.1534 142.98 94.1534H146.89V95.0846H78.159V94.1534H81.4342C83.9467 94.1534 85.8011 91.8174 85.2311 89.3771L79.6601 65.2547L66.4871 8.19597L53.3142 65.2547L53.1054 66.1859L47.7191 89.5135C47.1652 91.8897 48.9713 94.1534 51.4117 94.1534H55.313V95.0846H3.39978V94.1534H7.12449C9.70129 94.1534 11.7884 92.0663 11.7884 89.4895V7.44942C11.7884 4.87262 9.70129 2.7855 7.12449 2.7855H3.39978V1.85432H47.1732C48.1285 1.85432 48.883 1.03553 48.7947 0.0802664L49.7259 -7.62939e-06L52.1662 27.8631L51.2351 27.9434L50.1514 15.5491C49.5172 8.33244 43.4726 2.7855 36.2158 2.7855H21.1082C18.5395 2.7855 16.4523 4.87262 16.4523 7.44942V41.9432H37.8935C40.4703 41.9432 42.5574 39.856 42.5574 37.2792V28.425H43.4886V56.3925H42.5574V47.5383C42.5574 44.9615 40.4703 42.8743 37.8935 42.8743H16.4523V89.4895C16.4523 92.0663 18.5395 94.1534 21.1082 94.1534H40.7994C43.6572 94.1534 46.1457 92.1786 46.7879 89.3851L67.0009 1.85432H69.8185L69.7864 1.97473L89.9833 89.4493C90.6175 92.2027 93.0739 94.1534 95.8995 94.1534H107.941C110.517 94.1534 112.605 92.0663 112.605 89.4895V7.44942C112.605 4.87262 110.517 2.7855 107.941 2.7855H102.161C94.9041 2.7855 88.8595 8.32441 88.2253 15.5491L87.1416 27.9434L86.2185 27.8631L88.6508 -7.62939e-06L89.582 0.0802664C89.4937 1.03553 90.2482 1.85432 91.2035 1.85432H138.67C139.625 1.85432 140.371 1.03553 140.291 0.0802664L141.214 -7.62939e-06L143.655 27.8631L142.723 27.9434L141.64 15.5491C141.014 8.33244 134.961 2.7855 127.712 2.7855H121.924C119.356 2.7855 117.268 4.87262 117.268 7.44942V89.4895C117.268 92.0663 119.356 94.1534 121.924 94.1534H132.368C135.234 94.1534 137.714 92.1786 138.364 89.3851L158.569 1.85432H161.387L161.363 1.97473L181.56 89.4493C182.194 92.2027 184.642 94.1534 187.468 94.1534H194.845C197.422 94.1534 199.509 92.0663 199.509 89.4895V7.44942C199.509 4.87262 197.422 2.7855 194.845 2.7855H191.121V1.85432H212.562V2.7855H208.829C206.26 2.7855 204.173 4.87262 204.173 7.44942V89.4895C204.173 92.0663 206.26 94.1534 208.829 94.1534H228.833C232.783 94.1534 236.082 91.1351 236.427 87.1936L237.013 80.4827V80.4346H237.519L238.113 87.1936C238.458 91.1351 241.749 94.1534 245.707 94.1534H248.035C250.612 94.1534 252.699 92.0663 252.699 89.4895V7.44942C252.699 4.87262 250.612 2.7855 248.035 2.7855H244.31V1.85432H288.084C289.039 1.85432 289.785 1.03553 289.705 0.0802664L290.636 -7.62939e-06L293.077 27.8631L292.145 27.9434L291.062 15.5491C290.428 8.33244 284.383 2.7855 277.126 2.7855H262.019C259.45 2.7855 257.363 4.87262 257.363 7.44942V40.0808H278.804C281.381 40.0808 283.468 37.9937 283.468 35.4169V26.5627H284.399V54.5301H283.468V45.6759C283.468 43.0991 281.381 41.012 278.804 41.012H257.363V89.4895C257.363 92.0663 259.45 94.1534 262.019 94.1534H278.997C286.245 94.1534 292.29 88.6145 292.924 81.3898L294.008 68.9955L294.939 69.0758Z" fill="white"/>
<path d="M20.6586 143.056L22.5691 148.844C22.9946 150.144 22.0313 151.485 20.6586 151.485C19.2859 151.485 18.3226 150.144 18.7481 148.844L20.6586 143.056Z" fill="white"/>
<path d="M20.6586 141.451L22.5691 135.663C22.9946 134.363 22.0313 133.022 20.6586 133.022C19.2859 133.022 18.3226 134.363 18.7481 135.663L20.6586 141.451Z" fill="white"/>
<path d="M19.0532 142.254L5.47085 144.06C4.37912 144.204 3.39978 143.353 3.39978 142.254C3.39978 141.146 4.3711 140.295 5.47085 140.447L19.0532 142.254Z" fill="white"/>
<path d="M22.8344 143.626L33.8801 153.733C34.161 153.99 34.169 154.423 33.9041 154.696C33.6392 154.961 33.1977 154.953 32.9408 154.672L22.8344 143.626Z" fill="white"/>
<path d="M18.3229 143.626L8.21643 154.672C7.95955 154.953 7.52607 154.961 7.25314 154.696C6.98823 154.431 6.99626 153.99 7.27722 153.733L18.3229 143.626Z" fill="white"/>
<path d="M22.8344 140.72L33.8801 130.614C34.161 130.357 34.169 129.923 33.9041 129.651C33.6392 129.386 33.1977 129.394 32.9408 129.675L22.8344 140.72Z" fill="white"/>
<path d="M18.3229 140.72L8.21643 129.675C7.95955 129.394 7.52607 129.386 7.25314 129.651C6.98823 129.915 6.99626 130.357 7.27722 130.614L18.3229 140.72Z" fill="white"/>
<path d="M22.2642 142.254L35.8465 144.06C36.9382 144.204 37.9176 143.353 37.9176 142.254C37.9176 141.146 36.9463 140.295 35.8465 140.447L22.2642 142.254Z" fill="white"/>
<path d="M20.8593 119.308H20.4579V165.118H20.8593V119.308Z" fill="white"/>
</g>
<line x1="180.5" y1="111.75" x2="300.5" y2="111.75" stroke="#A082DD" stroke-width="0.5"/>
<rect x="150.843" y="116" width="4" height="4" transform="rotate(-45 150.843 116)" fill="#A082DD"/>
<rect x="154.843" y="112" width="4" height="4" transform="rotate(-45 154.843 112)" fill="#A082DD"/>
<rect x="146.843" y="112" width="4" height="4" transform="rotate(-45 146.843 112)" fill="#A082DD"/>
<rect x="150.843" y="108" width="4" height="4" transform="rotate(-45 150.843 108)" fill="#A082DD"/>
<line x1="6.84326" y1="111.75" x2="126.843" y2="111.75" stroke="#A082DD" stroke-width="0.5"/>
<circle cx="2.5" cy="112" r="2" fill="#A082DD"/>
<circle cx="304.5" cy="112" r="2" fill="#A082DD"/>
<defs>
<clipPath id="clip0_1_116">
<rect width="296.396" height="173.119" fill="white" transform="translate(3.39978 -7.62939e-06)"/>
</clipPath>
</defs>
</svg>
